<svg width="146" height="19" viewBox="0 0 146 19" fill="none" xmlns="http://www.w3.org/2000/svg">
<path d="M0.327539 6.572C0.254206 6.27867 0.320206 6.05133 0.525539 5.89C0.730873 5.72867 0.928873 5.61867 1.11954 5.56C1.48621 5.472 1.87487 5.36933 2.28554 5.252C2.71087 5.12 3.10687 4.99533 3.47354 4.878C3.82554 4.77533 4.13354 4.68733 4.39754 4.614C4.67621 4.54067 4.85221 4.51133 4.92554 4.526C5.11621 4.58467 5.28487 4.702 5.43154 4.878C5.59287 5.03933 5.65154 5.20067 5.60754 5.362C5.43154 6.286 5.23354 7.12933 5.01354 7.892C4.79354 8.65467 4.57354 9.388 4.35354 10.092C4.29487 10.2533 4.19954 10.3927 4.06754 10.51C3.93554 10.6127 3.75954 10.664 3.53954 10.664C3.31954 10.6787 3.18021 10.62 3.12154 10.488C3.07754 10.3413 3.07754 10.202 3.12154 10.07C3.26821 9.63 3.39287 9.234 3.49554 8.882C3.59821 8.53 3.69354 8.19267 3.78154 7.87C3.86954 7.54733 3.95754 7.22467 4.04554 6.902C4.13354 6.56467 4.23621 6.19067 4.35354 5.78C4.10421 5.868 3.86954 5.94133 3.64954 6C3.44421 6.05867 3.23887 6.12467 3.03354 6.198C2.81354 6.25667 2.59354 6.32267 2.37354 6.396C2.16821 6.45467 1.94821 6.528 1.71354 6.616C1.47887 6.704 1.20021 6.76267 0.877539 6.792C0.554872 6.82133 0.371539 6.748 0.327539 6.572ZM8.22554 3.47C8.22554 3.30867 8.28421 3.19867 8.40154 3.14C8.53354 3.06667 8.67287 3.03733 8.81954 3.052C8.96621 3.08133 9.09821 3.14 9.21554 3.228C9.34754 3.316 9.41354 3.43333 9.41354 3.58C9.39887 3.888 9.38421 4.21067 9.36954 4.548C9.35487 4.87067 9.34021 5.20067 9.32554 5.538C9.31087 5.87533 9.29621 6.21267 9.28154 6.55C9.26687 6.88733 9.25221 7.22467 9.23754 7.562C9.50154 7.518 9.74354 7.474 9.96354 7.43C10.1835 7.37133 10.3962 7.32 10.6015 7.276C10.8215 7.21733 11.0489 7.166 11.2835 7.122C11.5182 7.06333 11.7895 6.99733 12.0975 6.924C12.2295 6.89467 12.3615 6.90933 12.4935 6.968C12.6402 7.02667 12.7062 7.122 12.6915 7.254C12.6769 7.45933 12.6182 7.628 12.5155 7.76C12.4275 7.87733 12.2515 7.98 11.9875 8.068C11.7382 8.156 11.5182 8.22933 11.3275 8.288C11.1515 8.332 10.9755 8.376 10.7995 8.42C10.6235 8.464 10.4402 8.51533 10.2495 8.574C10.0735 8.618 9.86087 8.66933 9.61154 8.728C9.47954 8.772 9.36954 8.838 9.28154 8.926C9.20821 9.014 9.15687 9.124 9.12754 9.256C9.09821 9.564 9.07621 9.86467 9.06154 10.158C9.06154 10.4513 9.06154 10.73 9.06154 10.994C9.20821 11.0233 9.34021 11.0893 9.45754 11.192C9.57487 11.2947 9.63354 11.456 9.63354 11.676C9.63354 12.1307 9.61887 12.6073 9.58954 13.106C9.56021 13.59 9.52354 14.074 9.47954 14.558C9.46487 14.822 9.37687 15.0787 9.21554 15.328C9.06887 15.5627 8.86354 15.7093 8.59954 15.768C8.35021 15.8267 8.09354 15.878 7.82954 15.922C7.56554 15.966 7.30154 16.0173 7.03754 16.076C6.77354 16.12 6.50954 16.1713 6.24554 16.23C5.98154 16.2887 5.73954 16.362 5.51954 16.45C5.27021 16.538 4.99887 16.516 4.70554 16.384C4.41221 16.252 4.26554 16.0687 4.26554 15.834C4.22154 15.086 4.21421 14.4187 4.24354 13.832C4.28754 13.2307 4.35354 12.6147 4.44154 11.984C5.04287 11.896 5.62954 11.8007 6.20154 11.698C6.78821 11.5953 7.34554 11.456 7.87354 11.28C7.90287 10.62 7.93221 9.96 7.96154 9.3C7.99087 8.64 8.02021 7.98 8.04954 7.32C8.07887 6.67467 8.10087 6.03667 8.11554 5.406C8.14487 4.76067 8.18154 4.11533 8.22554 3.47ZM5.47554 12.974C5.41687 13.3847 5.37287 13.7807 5.34354 14.162C5.32887 14.5287 5.33621 14.888 5.36554 15.24L8.33554 14.58L8.46754 12.226C8.24754 12.3287 8.02754 12.4167 7.80754 12.49C7.58754 12.5633 7.35287 12.622 7.10354 12.666C6.85421 12.7247 6.59021 12.7833 6.31154 12.842C6.04754 12.886 5.76887 12.93 5.47554 12.974ZM12.9909 6.132C12.9176 5.85333 12.9909 5.63333 13.2109 5.472C13.4456 5.31067 13.6583 5.208 13.8489 5.164C14.2156 5.076 14.5969 4.97333 14.9929 4.856C15.4036 4.73867 15.7849 4.62867 16.1369 4.526C16.4889 4.42333 16.7896 4.34267 17.0389 4.284C17.3029 4.21067 17.4716 4.18133 17.5449 4.196C17.7503 4.25467 17.9263 4.37933 18.0729 4.57C18.2343 4.746 18.2783 4.90733 18.2049 5.054C18.0289 5.42067 17.8383 5.79467 17.6329 6.176C17.4423 6.55733 17.2369 6.946 17.0169 7.342C17.3689 7.782 17.6843 8.16333 17.9629 8.486C18.2563 8.794 18.6083 9.168 19.0189 9.608C19.1216 9.72533 19.1583 9.85733 19.1289 10.004C19.1143 10.1507 19.0556 10.2753 18.9529 10.378C18.8503 10.4807 18.7256 10.5393 18.5789 10.554C18.4323 10.554 18.2929 10.466 18.1609 10.29C17.8089 9.894 17.4936 9.564 17.2149 9.3C16.9509 9.02133 16.6649 8.74267 16.3569 8.464C16.0636 8.948 15.7629 9.41733 15.4549 9.872C15.1616 10.312 14.8756 10.73 14.5969 11.126C14.4796 11.2873 14.3403 11.3753 14.1789 11.39C14.0323 11.4047 13.9003 11.3753 13.7829 11.302C13.6656 11.2287 13.5849 11.1187 13.5409 10.972C13.4969 10.8253 13.5336 10.6713 13.6509 10.51C14.3256 9.542 14.9416 8.63267 15.4989 7.782C16.0563 6.93133 16.5036 6.16133 16.8409 5.472C16.6209 5.54533 16.4156 5.61133 16.2249 5.67C16.0343 5.714 15.8436 5.76533 15.6529 5.824C15.4476 5.868 15.2423 5.91933 15.0369 5.978C14.8463 6.03667 14.6336 6.11 14.3989 6.198C14.1643 6.286 13.8856 6.35933 13.5629 6.418C13.2549 6.462 13.0643 6.36667 12.9909 6.132ZM21.6369 10.906C21.6516 10.5833 21.6663 10.2827 21.6809 10.004C21.7103 9.71067 21.7323 9.432 21.7469 9.168C21.7616 8.904 21.7763 8.64733 21.7909 8.398C21.8056 8.134 21.8276 7.87 21.8569 7.606C21.6223 7.63533 21.4096 7.66467 21.2189 7.694C21.0283 7.72333 20.8449 7.75267 20.6689 7.782C20.4783 7.81133 20.2876 7.84067 20.0969 7.87C19.9063 7.89933 19.7009 7.92133 19.4809 7.936C19.3343 7.96533 19.2096 7.936 19.1069 7.848C19.0189 7.74533 18.9749 7.628 18.9749 7.496C18.9603 7.37867 18.9896 7.26133 19.0629 7.144C19.1363 7.012 19.2683 6.93133 19.4589 6.902C19.8109 6.84333 20.1703 6.77733 20.5369 6.704C20.9036 6.616 21.2483 6.528 21.5709 6.44C21.6149 6.44 21.6663 6.43267 21.7249 6.418C21.7983 6.38867 21.8716 6.352 21.9449 6.308C21.9449 5.98533 21.9523 5.63333 21.9669 5.252C21.9963 4.856 22.0329 4.416 22.0769 3.932C22.0769 3.69733 22.1429 3.52133 22.2749 3.404C22.4069 3.28667 22.5463 3.228 22.6929 3.228C22.8543 3.228 22.9936 3.28667 23.1109 3.404C23.2283 3.52133 23.2869 3.69733 23.2869 3.932C23.2429 4.504 23.1989 5.08333 23.1549 5.67C23.1256 6.242 23.0963 6.82133 23.0669 7.408C23.0376 7.98 23.0083 8.55933 22.9789 9.146C22.9496 9.73267 22.9129 10.312 22.8689 10.884C22.8543 10.972 22.8323 11.0453 22.8029 11.104C22.7883 11.148 22.7663 11.192 22.7369 11.236C22.9569 11.3827 23.1403 11.5733 23.2869 11.808C23.4336 12.0427 23.4923 12.2993 23.4629 12.578C23.4189 12.9593 23.2796 13.3407 23.0449 13.722C22.8249 14.1033 22.5536 14.448 22.2309 14.756C21.9083 15.0493 21.5489 15.284 21.1529 15.46C20.7569 15.636 20.3683 15.7093 19.9869 15.68C19.6203 15.6653 19.2829 15.5333 18.9749 15.284C18.6816 15.02 18.5569 14.668 18.6009 14.228C18.6156 13.7733 18.7183 13.3407 18.9089 12.93C19.0996 12.5193 19.3489 12.16 19.6569 11.852C19.9503 11.5587 20.2656 11.3313 20.6029 11.17C20.9549 10.994 21.2996 10.906 21.6369 10.906ZM19.8109 14.052C19.8109 14.14 19.8329 14.2353 19.8769 14.338C19.9356 14.426 20.0383 14.47 20.1849 14.47C20.3463 14.4847 20.5369 14.448 20.7569 14.36C20.9916 14.2573 21.2116 14.118 21.4169 13.942C21.6076 13.7807 21.7763 13.59 21.9229 13.37C22.0696 13.15 22.1576 12.9227 22.1869 12.688C22.2016 12.4827 22.1356 12.3287 21.9889 12.226C21.8569 12.1087 21.7249 12.05 21.5929 12.05C21.3876 12.05 21.1749 12.1233 20.9549 12.27C20.7496 12.402 20.5589 12.5707 20.3829 12.776C20.2069 12.9813 20.0603 13.2013 19.9429 13.436C19.8403 13.6707 19.7963 13.876 19.8109 14.052ZM30.2898 7.958C29.9818 7.92867 29.7252 7.83333 29.5198 7.672C29.3292 7.496 29.1825 7.30533 29.0798 7.1C28.9625 6.88 28.8965 6.66 28.8818 6.44C28.8672 6.20533 28.8818 6.00733 28.9258 5.846C28.8818 5.37667 28.9772 4.99533 29.2118 4.702C29.4612 4.40867 29.7032 4.196 29.9378 4.064C30.1872 3.844 30.4438 3.68267 30.7078 3.58C30.9865 3.47733 31.2945 3.426 31.6318 3.426C32.1452 3.426 32.5778 3.58 32.9298 3.888C33.2965 4.196 33.4578 4.592 33.4138 5.076C33.3698 5.48667 33.2378 5.87533 33.0178 6.242C32.8125 6.60867 32.5558 6.924 32.2478 7.188C31.9398 7.46667 31.6098 7.67933 31.2578 7.826C30.9058 7.958 30.5832 8.002 30.2898 7.958ZM30.0478 6.33C30.0478 6.418 30.0772 6.51333 30.1358 6.616C30.2092 6.704 30.3192 6.748 30.4658 6.748C30.8032 6.76267 31.1552 6.60867 31.5218 6.286C31.9032 5.94867 32.1158 5.58933 32.1598 5.208C32.1745 5.00267 32.1158 4.84867 31.9838 4.746C31.8518 4.62867 31.7125 4.57 31.5658 4.57C31.3605 4.57 31.1625 4.64333 30.9718 4.79C30.7958 4.922 30.6418 5.08333 30.5098 5.274C30.3632 5.46467 30.2458 5.66267 30.1578 5.868C30.0698 6.07333 30.0332 6.22733 30.0478 6.33ZM32.1598 10.862C32.0718 10.95 32.0132 11.0527 31.9838 11.17C31.9545 11.2727 31.9398 11.368 31.9398 11.456C31.9105 11.9987 31.8812 12.622 31.8518 13.326C31.8225 14.0153 31.7858 14.668 31.7418 15.284C31.7272 15.46 31.6538 15.5993 31.5218 15.702C31.4045 15.8047 31.2798 15.856 31.1478 15.856C31.0012 15.8707 30.8692 15.834 30.7518 15.746C30.6345 15.658 30.5758 15.5113 30.5758 15.306C30.5612 14.998 30.5538 14.6533 30.5538 14.272C30.5685 13.8907 30.5832 13.502 30.5978 13.106C30.6125 12.71 30.6198 12.3287 30.6198 11.962C30.6198 11.5953 30.6198 11.258 30.6198 10.95C29.9452 10.994 29.2998 11.0453 28.6838 11.104C28.0678 11.1627 27.5252 11.214 27.0558 11.258C26.8358 11.2873 26.6745 11.258 26.5718 11.17C26.4838 11.082 26.4398 10.972 26.4398 10.84C26.4398 10.708 26.4838 10.5833 26.5718 10.466C26.6598 10.3487 26.7918 10.2753 26.9678 10.246C27.5398 10.1433 28.2072 10.0553 28.9698 9.982C29.7325 9.90867 30.5098 9.84267 31.3018 9.784C32.0938 9.72533 32.8638 9.68867 33.6118 9.674C34.3598 9.64467 35.0125 9.63 35.5698 9.63C35.7752 9.64467 35.9218 9.71067 36.0098 9.828C36.1125 9.94533 36.1638 10.0773 36.1638 10.224C36.1492 10.356 36.0832 10.4807 35.9658 10.598C35.8485 10.7007 35.6798 10.752 35.4598 10.752C34.9905 10.752 34.4698 10.7667 33.8978 10.796C33.3405 10.8107 32.7612 10.8327 32.1598 10.862ZM38.8538 4.878C39.2498 4.834 39.6825 4.79 40.1518 4.746C40.6212 4.68733 41.0832 4.62867 41.5378 4.57C41.9778 4.51133 42.3885 4.45267 42.7698 4.394C43.1512 4.33533 43.4592 4.26933 43.6938 4.196C44.3538 4.02 44.8232 3.96133 45.1018 4.02C45.3952 4.064 45.5565 4.24 45.5858 4.548C45.5858 4.724 45.5198 4.89267 45.3878 5.054C45.2558 5.21533 45.0652 5.296 44.8158 5.296C44.7718 5.296 44.7278 5.30333 44.6838 5.318C44.6545 5.318 44.6252 5.318 44.5958 5.318C44.5518 5.318 44.5078 5.318 44.4638 5.318C44.4345 5.318 44.4052 5.318 44.3758 5.318C44.2878 5.87533 44.2218 6.41067 44.1778 6.924C44.1485 7.42267 44.1192 7.936 44.0898 8.464C44.1778 8.464 44.2585 8.464 44.3318 8.464C44.4198 8.44933 44.5078 8.43467 44.5958 8.42C44.6692 8.42 44.7498 8.41267 44.8378 8.398C44.9258 8.38333 45.0138 8.36867 45.1018 8.354C45.3072 8.33933 45.4758 8.38333 45.6078 8.486C45.7398 8.58867 45.8132 8.706 45.8278 8.838C45.8572 8.97 45.8205 9.102 45.7178 9.234C45.6298 9.35133 45.4758 9.42467 45.2558 9.454C45.1825 9.46867 45.1165 9.48333 45.0578 9.498C44.9992 9.498 44.9478 9.50533 44.9038 9.52C44.8452 9.53467 44.7865 9.54933 44.7278 9.564C44.6692 9.564 44.6105 9.564 44.5518 9.564C44.5518 10.048 44.5518 10.576 44.5518 11.148C44.5665 11.7053 44.5958 12.204 44.6398 12.644C44.8158 12.6293 44.9918 12.6147 45.1678 12.6C45.3438 12.5853 45.5198 12.5707 45.6958 12.556C45.8718 12.5413 46.0405 12.5267 46.2018 12.512C46.3778 12.4973 46.5465 12.4827 46.7078 12.468C46.8985 12.468 47.0525 12.512 47.1698 12.6C47.3018 12.688 47.3752 12.7907 47.3898 12.908C47.4192 13.0253 47.3898 13.1427 47.3018 13.26C47.2138 13.3627 47.0745 13.4213 46.8838 13.436C46.2825 13.5387 45.6298 13.6413 44.9258 13.744C44.2365 13.8467 43.5252 13.9567 42.7918 14.074C42.0732 14.1767 41.3545 14.2867 40.6358 14.404C39.9172 14.5067 39.2498 14.6093 38.6338 14.712C38.4432 14.756 38.2965 14.7193 38.1938 14.602C38.1058 14.4847 38.0618 14.3527 38.0618 14.206C38.0472 14.0447 38.0765 13.8907 38.1498 13.744C38.2232 13.5973 38.3405 13.5093 38.5018 13.48C38.7658 13.436 39.0445 13.392 39.3378 13.348C39.6458 13.304 39.9612 13.26 40.2838 13.216C40.2838 12.996 40.2838 12.7687 40.2838 12.534C40.2985 12.2847 40.3132 12.028 40.3278 11.764C40.3425 11.5147 40.3498 11.2653 40.3498 11.016C40.3645 10.752 40.3865 10.4953 40.4158 10.246C40.3572 10.2607 40.3058 10.2753 40.2618 10.29C40.2178 10.29 40.1738 10.29 40.1298 10.29C40.0712 10.29 40.0198 10.2973 39.9758 10.312C39.9318 10.312 39.8878 10.312 39.8438 10.312C39.5505 10.356 39.3378 10.3267 39.2058 10.224C39.0738 10.1213 39.0005 9.99667 38.9858 9.85C38.9712 9.718 39.0152 9.586 39.1178 9.454C39.2205 9.30733 39.3745 9.21933 39.5798 9.19C39.6532 9.19 39.7265 9.18267 39.7998 9.168C39.8878 9.15333 39.9685 9.13867 40.0418 9.124C40.1152 9.10933 40.1885 9.09467 40.2618 9.08C40.3498 9.06533 40.4378 9.05067 40.5258 9.036C40.4818 8.508 40.4598 7.958 40.4598 7.386C40.4598 6.79933 40.4818 6.264 40.5258 5.78C40.3058 5.824 40.0858 5.86067 39.8658 5.89C39.6605 5.91933 39.4478 5.94133 39.2278 5.956C38.9932 6 38.8098 5.97067 38.6778 5.868C38.5605 5.76533 38.4872 5.64067 38.4578 5.494C38.4285 5.362 38.4432 5.23733 38.5018 5.12C38.5752 4.988 38.6925 4.90733 38.8538 4.878ZM43.2758 5.428C42.9825 5.472 42.6965 5.50867 42.4178 5.538C42.1392 5.56733 41.8678 5.59667 41.6038 5.626C41.5745 6.13933 41.5598 6.69667 41.5598 7.298C41.5598 7.88467 41.5818 8.40533 41.6258 8.86C41.8458 8.83067 42.0658 8.794 42.2858 8.75C42.5205 8.706 42.7478 8.662 42.9678 8.618C42.9825 8.11933 43.0118 7.606 43.0558 7.078C43.1145 6.53533 43.1878 5.98533 43.2758 5.428ZM43.5398 9.74C43.1878 9.81333 42.8358 9.87933 42.4838 9.938C42.1318 9.99667 41.7798 10.048 41.4278 10.092C41.4278 10.5467 41.4278 11.038 41.4278 11.566C41.4278 12.094 41.4352 12.5853 41.4498 13.04C41.5965 13.0253 41.7505 13.0107 41.9118 12.996C42.0878 12.9667 42.2565 12.9447 42.4178 12.93C42.5792 12.9153 42.7405 12.9007 42.9018 12.886C43.0778 12.8567 43.2538 12.8273 43.4298 12.798C43.4152 12.3433 43.4152 11.8373 43.4298 11.28C43.4592 10.7227 43.4958 10.2093 43.5398 9.74ZM51.1958 0.785999C51.4892 0.683333 51.8045 0.595333 52.1418 0.522C52.4938 0.433999 52.8312 0.367999 53.1538 0.324C53.4765 0.265333 53.7625 0.228666 54.0118 0.214C54.2758 0.199332 54.4665 0.191999 54.5838 0.191999C54.8478 0.221333 55.0825 0.331333 55.2878 0.522C55.5078 0.697999 55.6252 0.873999 55.6398 1.05C55.6398 1.226 55.6398 1.38733 55.6398 1.534C55.6545 1.666 55.6618 1.798 55.6618 1.93C55.6618 2.062 55.6618 2.194 55.6618 2.326C55.6618 2.458 55.6618 2.59733 55.6618 2.744C55.6472 3.008 55.5592 3.272 55.3978 3.536C55.2512 3.8 55.0238 4.01267 54.7158 4.174C54.4372 4.306 54.1952 4.42333 53.9898 4.526C53.7992 4.62867 53.6158 4.724 53.4398 4.812C53.2492 4.9 53.0658 4.988 52.8898 5.076C52.7138 5.164 52.5158 5.25933 52.2958 5.362C52.2078 5.406 52.1125 5.494 52.0098 5.626C51.9072 5.758 51.8852 5.91933 51.9438 6.11C51.9878 6.31533 52.0685 6.462 52.1858 6.55C52.3032 6.638 52.4498 6.682 52.6258 6.682C53.0658 6.69667 53.5425 6.66733 54.0558 6.594C54.5692 6.52067 54.9358 6.45467 55.1558 6.396C55.6838 6.264 56.0432 6.25667 56.2338 6.374C56.4245 6.47667 56.5272 6.65267 56.5418 6.902C56.5418 7.078 56.4538 7.21 56.2778 7.298C56.1165 7.37133 55.9258 7.43 55.7058 7.474C55.2218 7.57667 54.7232 7.66467 54.2098 7.738C53.7112 7.81133 53.2052 7.848 52.6918 7.848C52.3105 7.848 51.9365 7.76733 51.5698 7.606C51.2032 7.44467 50.9465 7.12933 50.7998 6.66C50.6238 6.16133 50.6165 5.70667 50.7778 5.296C50.9538 4.87067 51.2545 4.55533 51.6798 4.35C51.8998 4.262 52.1125 4.174 52.3178 4.086C52.5232 3.98333 52.7212 3.88067 52.9118 3.778C53.1172 3.69 53.3152 3.59467 53.5058 3.492C53.6965 3.38933 53.8945 3.272 54.0998 3.14C54.2612 3.052 54.3785 2.91267 54.4518 2.722C54.5252 2.51667 54.5618 2.326 54.5618 2.15L54.4958 1.336C54.0118 1.39467 53.5278 1.46067 53.0438 1.534C52.5745 1.60733 52.0758 1.71 51.5478 1.842C51.4012 1.886 51.2398 1.89333 51.0638 1.864C50.8878 1.83467 50.7705 1.754 50.7118 1.622C50.6238 1.47533 50.6312 1.32133 50.7338 1.16C50.8365 0.983999 50.9905 0.859332 51.1958 0.785999ZM49.5898 9.85C50.1472 9.718 50.7778 9.60067 51.4818 9.498C52.2005 9.38067 52.9265 9.278 53.6598 9.19C54.3932 9.102 55.1118 9.02867 55.8158 8.97C56.5198 8.91133 57.1432 8.86733 57.6858 8.838C57.8912 8.838 58.0452 8.89667 58.1478 9.014C58.2505 9.13133 58.3018 9.26333 58.3018 9.41C58.3018 9.57133 58.2432 9.718 58.1258 9.85C58.0232 9.982 57.8618 10.048 57.6418 10.048C57.0698 10.092 56.4318 10.1433 55.7278 10.202C55.0385 10.2607 54.3418 10.334 53.6378 10.422C52.9192 10.4953 52.2225 10.5833 51.5478 10.686C50.8732 10.774 50.2718 10.862 49.7438 10.95C49.5238 10.994 49.3625 10.972 49.2598 10.884C49.1572 10.7813 49.0985 10.664 49.0838 10.532C49.0838 10.3853 49.1205 10.246 49.1938 10.114C49.2818 9.982 49.4138 9.894 49.5898 9.85ZM50.7558 13.414C50.7118 13.194 50.7705 13.0107 50.9318 12.864C51.0932 12.7173 51.2838 12.6 51.5038 12.512C51.8558 12.38 52.2372 12.2553 52.6478 12.138C53.0585 12.0207 53.4545 11.918 53.8358 11.83C54.2172 11.742 54.5692 11.676 54.8918 11.632C55.2145 11.5733 55.4638 11.5367 55.6398 11.522C55.8598 11.522 56.1092 11.6247 56.3878 11.83C56.6665 12.0353 56.7985 12.248 56.7838 12.468C56.7545 12.6733 56.7032 12.9227 56.6298 13.216C56.5712 13.4947 56.4978 13.766 56.4098 14.03C56.3218 14.294 56.2412 14.5287 56.1678 14.734C56.0945 14.9393 56.0358 15.0567 55.9918 15.086C55.7718 15.2327 55.5298 15.372 55.2658 15.504C55.0165 15.6213 54.7525 15.7313 54.4738 15.834C54.1952 15.9513 53.9092 16.0687 53.6158 16.186C53.3225 16.2887 53.0365 16.3987 52.7578 16.516C52.6698 16.56 52.5892 16.6333 52.5158 16.736C52.4425 16.824 52.4278 16.9193 52.4718 17.022C52.5012 17.1393 52.5745 17.2127 52.6918 17.242C52.8238 17.2713 52.9778 17.286 53.1538 17.286C53.6085 17.286 54.0265 17.264 54.4078 17.22C54.7892 17.176 55.1998 17.1027 55.6398 17C55.7278 16.9853 55.8305 16.956 55.9478 16.912C56.0652 16.868 56.1898 16.824 56.3218 16.78C56.4392 16.736 56.5565 16.6993 56.6738 16.67C56.7912 16.626 56.9012 16.5967 57.0038 16.582C57.1358 16.582 57.2678 16.6333 57.3998 16.736C57.5318 16.824 57.6125 16.934 57.6418 17.066C57.6712 17.2273 57.6418 17.4033 57.5538 17.594C57.4805 17.7847 57.2018 17.9167 56.7178 17.99C56.4245 18.034 56.1165 18.078 55.7938 18.122C55.4712 18.1807 55.1412 18.232 54.8038 18.276C54.4518 18.32 54.0998 18.3493 53.7478 18.364C53.4105 18.3787 53.0805 18.3713 52.7578 18.342C52.1712 18.3127 51.7532 18.188 51.5038 17.968C51.2545 17.7627 51.1078 17.484 51.0638 17.132C51.0198 16.824 51.0712 16.56 51.2178 16.34C51.3645 16.1053 51.5625 15.922 51.8118 15.79C52.0612 15.658 52.3178 15.5333 52.5818 15.416C52.8605 15.2987 53.1392 15.1813 53.4178 15.064C53.6965 14.9467 53.9752 14.8293 54.2538 14.712C54.5472 14.58 54.8405 14.448 55.1338 14.316C55.1778 14.1987 55.2218 14.074 55.2658 13.942C55.3098 13.7953 55.3538 13.656 55.3978 13.524C55.4418 13.3773 55.4785 13.238 55.5078 13.106C55.5518 12.9593 55.5958 12.82 55.6398 12.688C55.0532 12.7613 54.4738 12.8787 53.9018 13.04C53.3445 13.2013 52.7358 13.392 52.0758 13.612C51.8558 13.6853 51.5918 13.722 51.2838 13.722C50.9758 13.722 50.7998 13.6193 50.7558 13.414ZM70.2762 3.47C70.4082 3.25 70.5549 3.118 70.7162 3.074C70.8775 3.03 71.0242 3.04467 71.1562 3.118C71.2735 3.206 71.3542 3.338 71.3982 3.514C71.4422 3.67533 71.4129 3.844 71.3102 4.02C71.2222 4.196 71.1269 4.372 71.0242 4.548C70.9362 4.70933 70.8409 4.87067 70.7382 5.032C70.6355 5.208 70.5329 5.384 70.4302 5.56C70.3275 5.72133 70.2322 5.88267 70.1442 6.044C70.3495 6.396 70.5475 6.71867 70.7382 7.012C70.9289 7.30533 71.1195 7.59133 71.3102 7.87C71.5009 8.14867 71.6989 8.43467 71.9042 8.728C72.1095 9.00667 72.3222 9.30733 72.5422 9.63C72.6302 9.79133 72.6522 9.94533 72.6082 10.092C72.5642 10.2387 72.4835 10.3487 72.3662 10.422C72.2489 10.4953 72.1169 10.532 71.9702 10.532C71.8235 10.5173 71.6989 10.444 71.5962 10.312C71.4202 10.0773 71.2442 9.83533 71.0682 9.586C70.9069 9.33667 70.7382 9.08 70.5622 8.816C70.3862 8.552 70.2029 8.28067 70.0122 8.002C69.8362 7.72333 69.6529 7.44467 69.4622 7.166C69.1689 7.62067 68.8829 8.07533 68.6042 8.53C68.3255 8.97 68.0542 9.39533 67.7902 9.806C67.6729 9.982 67.5262 10.0847 67.3502 10.114C67.1889 10.1287 67.0422 10.0993 66.9102 10.026C66.7782 9.938 66.6829 9.82067 66.6242 9.674C66.5655 9.52733 66.5949 9.366 66.7122 9.19C67.0495 8.662 67.3722 8.156 67.6802 7.672C68.0029 7.188 68.3109 6.71867 68.6042 6.264C68.8975 5.79467 69.1835 5.33267 69.4622 4.878C69.7409 4.42333 70.0122 3.954 70.2762 3.47ZM75.3582 3.228C75.3582 3.06667 75.4169 2.95667 75.5342 2.898C75.6662 2.82467 75.8055 2.79533 75.9522 2.81C76.0989 2.83933 76.2309 2.898 76.3482 2.986C76.4802 3.074 76.5462 3.19133 76.5462 3.338C76.5315 3.93933 76.5022 4.57733 76.4582 5.252C76.4289 5.92667 76.3922 6.60867 76.3482 7.298C76.3189 8.002 76.2822 8.684 76.2382 9.344C76.2089 10.004 76.1869 10.62 76.1722 11.192C76.1575 11.5293 76.0769 11.7713 75.9302 11.918C75.7982 12.05 75.6515 12.116 75.4902 12.116C75.3142 12.116 75.1602 12.05 75.0282 11.918C74.9109 11.7713 74.8669 11.5733 74.8962 11.324C74.9402 10.6493 74.9842 9.96 75.0282 9.256C75.0722 8.53733 75.1162 7.826 75.1602 7.122C74.9842 7.15133 74.8009 7.18067 74.6102 7.21C74.4342 7.23933 74.2435 7.26867 74.0382 7.298C73.8329 7.32733 73.6129 7.35667 73.3782 7.386C73.1582 7.41533 72.9235 7.43733 72.6742 7.452C72.5129 7.48133 72.3882 7.45933 72.3002 7.386C72.2269 7.298 72.1829 7.188 72.1682 7.056C72.1535 6.93867 72.1829 6.82133 72.2562 6.704C72.3442 6.572 72.4762 6.47667 72.6522 6.418C72.8722 6.374 73.0995 6.33733 73.3342 6.308C73.5689 6.264 73.7962 6.22 74.0162 6.176C74.2362 6.14667 74.4415 6.11 74.6322 6.066C74.8375 6.022 75.0282 5.978 75.2042 5.934C75.2189 5.47933 75.2335 5.02467 75.2482 4.57C75.2775 4.11533 75.3142 3.668 75.3582 3.228ZM71.2882 12.138C71.3029 11.9327 71.3689 11.786 71.4862 11.698C71.6182 11.5953 71.7502 11.5513 71.8822 11.566C72.0142 11.5807 72.1242 11.6467 72.2122 11.764C72.3149 11.8813 72.3662 12.0353 72.3662 12.226C72.3222 12.6807 72.2929 13.1207 72.2782 13.546C72.2635 13.9567 72.2562 14.3307 72.2562 14.668C72.5935 14.624 72.9382 14.5727 73.2902 14.514C73.6422 14.4407 73.9942 14.3673 74.3462 14.294C74.6982 14.2353 75.0502 14.1767 75.4022 14.118C75.7689 14.0593 76.1429 14.008 76.5242 13.964C76.7149 13.9493 76.8762 14.0007 77.0082 14.118C77.1402 14.2353 77.2062 14.3673 77.2062 14.514C77.2062 14.6753 77.1475 14.8073 77.0302 14.91C76.9129 14.998 76.7002 15.064 76.3922 15.108C75.6882 15.24 74.9842 15.372 74.2802 15.504C73.5909 15.6213 72.8575 15.7313 72.0802 15.834C71.7722 15.878 71.5155 15.8047 71.3102 15.614C71.1049 15.4087 71.0095 15.1667 71.0242 14.888C71.0242 14.668 71.0315 14.448 71.0462 14.228C71.0609 13.9933 71.0829 13.7587 71.1122 13.524C71.1269 13.2893 71.1489 13.062 71.1782 12.842C71.2222 12.6073 71.2589 12.3727 71.2882 12.138ZM83.9891 3.558C84.2091 3.514 84.3777 3.536 84.4951 3.624C84.6124 3.69733 84.6857 3.8 84.7151 3.932C84.7444 4.04933 84.7224 4.174 84.6491 4.306C84.5904 4.438 84.4877 4.53333 84.3411 4.592C84.1064 4.68 83.8424 4.768 83.5491 4.856C83.2557 4.92933 82.9551 4.99533 82.6471 5.054C82.3537 5.12733 82.0604 5.19333 81.7671 5.252C81.4737 5.296 81.2097 5.34 80.9751 5.384C80.9751 5.63333 80.9751 5.88267 80.9751 6.132C80.9751 6.38133 80.9824 6.63067 80.9971 6.88C81.3491 6.82133 81.6937 6.75533 82.0311 6.682C82.3831 6.60867 82.7131 6.53533 83.0211 6.462C83.3291 6.40333 83.6077 6.34467 83.8571 6.286C84.1064 6.22733 84.3044 6.176 84.4511 6.132C84.6711 6.088 84.8397 6.10267 84.9571 6.176C85.0744 6.24933 85.1477 6.352 85.1771 6.484C85.2064 6.616 85.1844 6.748 85.1111 6.88C85.0524 7.012 84.9497 7.10733 84.8031 7.166C84.5684 7.254 84.2897 7.342 83.9671 7.43C83.6444 7.50333 83.3071 7.57667 82.9551 7.65C82.6031 7.72333 82.2511 7.78933 81.8991 7.848C81.5617 7.90667 81.2757 7.958 81.0411 8.002C81.0411 8.266 81.0484 8.52267 81.0631 8.772C81.0924 9.00667 81.1217 9.24133 81.1511 9.476C81.5177 9.41733 81.9724 9.344 82.5151 9.256C83.0577 9.15333 83.6151 9.05067 84.1871 8.948C84.7591 8.84533 85.3091 8.75733 85.8371 8.684C86.3797 8.596 86.8491 8.52267 87.2451 8.464C87.2891 7.98 87.3257 7.52533 87.3551 7.1C87.3844 6.66 87.4137 6.22 87.4431 5.78C87.4724 5.35467 87.4944 4.91467 87.5091 4.46C87.5384 4.00533 87.5751 3.514 87.6191 2.986C87.6337 2.82467 87.6997 2.71467 87.8171 2.656C87.9491 2.58267 88.0811 2.56067 88.2131 2.59C88.3597 2.60467 88.4844 2.66333 88.5871 2.766C88.7044 2.854 88.7557 2.97133 88.7411 3.118C88.7264 3.61667 88.7044 4.10067 88.6751 4.57C88.6604 5.03933 88.6457 5.50133 88.6311 5.956L88.6531 5.89C88.6824 6.022 88.7557 6.10267 88.8731 6.132C89.0051 6.14667 89.1151 6.13933 89.2031 6.11C89.3497 6.08067 89.4891 6.05133 89.6211 6.022C89.7531 5.99267 89.8777 5.96333 89.9951 5.934C90.1124 5.91933 90.2297 5.89733 90.3471 5.868C90.4644 5.83867 90.5891 5.80933 90.7211 5.78C90.7504 5.208 90.7797 4.65067 90.8091 4.108C90.8384 3.55067 90.8751 3.03 90.9191 2.546C90.9337 2.38467 91.0071 2.27467 91.1391 2.216C91.2711 2.14267 91.4031 2.11333 91.5351 2.128C91.6817 2.15733 91.8137 2.216 91.9311 2.304C92.0484 2.392 92.1071 2.50933 92.1071 2.656C92.0631 3.844 92.0117 5.098 91.9531 6.418C91.8944 7.738 91.8284 8.96267 91.7551 10.092C91.7257 10.3707 91.6377 10.576 91.4911 10.708C91.3591 10.84 91.2197 10.906 91.0731 10.906C90.9117 10.9207 90.7651 10.8693 90.6331 10.752C90.5157 10.6347 90.4717 10.466 90.5011 10.246C90.5011 9.982 90.5084 9.71067 90.5231 9.432C90.5377 9.15333 90.5524 8.87467 90.5671 8.596C90.5671 8.31733 90.5744 8.03867 90.5891 7.76C90.6037 7.48133 90.6257 7.19533 90.6551 6.902C90.3764 6.946 90.0537 7.01933 89.6871 7.122C89.3351 7.22467 88.9537 7.364 88.5431 7.54C88.5137 7.936 88.4844 8.33933 88.4551 8.75C88.4404 9.16067 88.4257 9.564 88.4111 9.96C88.3817 10.2387 88.2864 10.4513 88.1251 10.598C87.9784 10.73 87.8244 10.7887 87.6631 10.774C87.4871 10.774 87.3331 10.7007 87.2011 10.554C87.0837 10.3927 87.0471 10.158 87.0911 9.85C87.0911 9.83533 87.0911 9.82067 87.0911 9.806C87.0911 9.77667 87.0911 9.74733 87.0911 9.718C87.0911 9.68867 87.0911 9.66667 87.0911 9.652C87.1057 9.62267 87.1131 9.59333 87.1131 9.564C86.7317 9.608 86.2844 9.674 85.7711 9.762C85.2724 9.83533 84.7591 9.92333 84.2311 10.026C83.7031 10.1287 83.1897 10.2313 82.6911 10.334C82.2071 10.422 81.7891 10.51 81.4371 10.598C80.9971 10.7153 80.6377 10.6933 80.3591 10.532C80.0951 10.356 79.9557 10.07 79.9411 9.674C79.9117 9.322 79.8897 8.97733 79.8751 8.64C79.8604 8.288 79.8531 7.936 79.8531 7.584C79.8384 7.232 79.8237 6.87267 79.8091 6.506C79.8091 6.13933 79.8017 5.758 79.7871 5.362C79.7724 5.06867 79.8384 4.84133 79.9851 4.68C80.1317 4.504 80.4031 4.372 80.7991 4.284C81.1657 4.22533 81.5104 4.15933 81.8331 4.086C82.1557 4.01267 82.4491 3.93933 82.7131 3.866C82.9771 3.80733 83.2117 3.74867 83.4171 3.69C83.6371 3.63133 83.8277 3.58733 83.9891 3.558ZM84.6711 12.996C84.5831 12.8347 84.5977 12.6807 84.7151 12.534C84.8324 12.3873 85.0597 12.27 85.3971 12.182C85.7051 12.1087 86.0864 12.028 86.5411 11.94C86.9957 11.852 87.4431 11.7787 87.8831 11.72C88.3231 11.6467 88.7264 11.5953 89.0931 11.566C89.4597 11.5367 89.7164 11.5293 89.8631 11.544C90.1271 11.6173 90.3617 11.7713 90.5671 12.006C90.7871 12.2407 90.8897 12.446 90.8751 12.622C90.8311 12.886 90.7944 13.15 90.7651 13.414C90.7357 13.6633 90.7064 13.9127 90.6771 14.162C90.6331 14.4113 90.5964 14.6607 90.5671 14.91C90.5377 15.1593 90.5084 15.4087 90.4791 15.658C90.4497 15.79 90.3764 15.9147 90.2591 16.032C90.1417 16.1493 89.9951 16.1933 89.8191 16.164C89.7017 16.164 89.5844 16.12 89.4671 16.032C89.3497 15.9293 89.3057 15.7827 89.3351 15.592L89.5991 12.688C89.3791 12.7173 89.1004 12.754 88.7631 12.798C88.4257 12.842 88.0664 12.8933 87.6851 12.952C87.3184 13.0107 86.9444 13.0767 86.5631 13.15C86.1817 13.2087 85.8517 13.26 85.5731 13.304C85.3824 13.348 85.1917 13.348 85.0011 13.304C84.8251 13.26 84.7151 13.1573 84.6711 12.996ZM96.7642 7.276C96.6909 6.95333 96.6175 6.60133 96.5442 6.22C96.4709 5.824 96.3902 5.428 96.3022 5.032C96.2289 4.636 96.1482 4.24733 96.0602 3.866C95.9869 3.48467 95.9209 3.12533 95.8622 2.788C95.8182 2.62667 95.8402 2.48 95.9282 2.348C96.0162 2.216 96.1335 2.128 96.2802 2.084C96.4122 2.02533 96.5442 2.018 96.6762 2.062C96.8229 2.09133 96.9182 2.194 96.9622 2.37C97.0209 2.678 97.0942 3.03733 97.1822 3.448C97.2849 3.844 97.3875 4.25467 97.4902 4.68C97.5929 5.10533 97.6882 5.52333 97.7762 5.934C97.8789 6.34467 97.9742 6.71133 98.0622 7.034C98.2822 6.99 98.5242 6.93133 98.7882 6.858C99.0522 6.77 99.3455 6.67467 99.6682 6.572C100.02 6.45467 100.27 6.44 100.416 6.528C100.578 6.60133 100.68 6.73333 100.724 6.924C100.739 7.056 100.702 7.21 100.614 7.386C100.526 7.562 100.262 7.694 99.8222 7.782C99.2942 7.89933 98.8029 8.002 98.3482 8.09C97.9082 8.16333 97.4829 8.23667 97.0722 8.31C96.6762 8.38333 96.2949 8.45667 95.9282 8.53C95.5762 8.58867 95.2242 8.64733 94.8722 8.706C94.6522 8.76467 94.4762 8.74267 94.3442 8.64C94.2269 8.53733 94.1609 8.42 94.1462 8.288C94.1315 8.14133 94.1682 8.002 94.2562 7.87C94.3589 7.72333 94.5202 7.63533 94.7402 7.606C94.9455 7.57667 95.1362 7.54733 95.3122 7.518C95.5029 7.48867 95.6789 7.45933 95.8402 7.43C96.0162 7.40067 96.1775 7.37867 96.3242 7.364C96.4709 7.33467 96.6175 7.30533 96.7642 7.276ZM97.6882 9.828C98.0842 9.84267 98.4729 10.0187 98.8542 10.356C99.2355 10.6787 99.3895 11.148 99.3162 11.764C99.2722 12.116 99.1549 12.4607 98.9642 12.798C98.7882 13.1353 98.5535 13.4433 98.2602 13.722C97.9815 13.986 97.6662 14.206 97.3142 14.382C96.9769 14.5433 96.6395 14.6167 96.3022 14.602C95.8182 14.602 95.4662 14.4627 95.2462 14.184C95.0409 13.8907 94.9382 13.5753 94.9382 13.238C94.9382 12.9007 95.0042 12.534 95.1362 12.138C95.2829 11.7273 95.4735 11.3533 95.7082 11.016C95.9575 10.664 96.2435 10.378 96.5662 10.158C96.9035 9.938 97.2775 9.828 97.6882 9.828ZM97.5562 11.06C97.3802 11.06 97.2115 11.126 97.0502 11.258C96.9035 11.39 96.7642 11.5513 96.6322 11.742C96.5002 11.9327 96.3902 12.138 96.3022 12.358C96.2289 12.5633 96.1922 12.7467 96.1922 12.908C96.1922 13.084 96.2362 13.2087 96.3242 13.282C96.4269 13.3407 96.5369 13.37 96.6542 13.37C96.9622 13.37 97.2849 13.2013 97.6222 12.864C97.9595 12.512 98.1502 12.116 98.1942 11.676C98.1942 11.4853 98.1282 11.3387 97.9962 11.236C97.8789 11.1187 97.7322 11.06 97.5562 11.06ZM102.308 5.23C102.308 5.06867 102.367 4.95867 102.484 4.9C102.602 4.82667 102.726 4.79733 102.858 4.812C103.005 4.84133 103.13 4.90733 103.232 5.01C103.35 5.098 103.408 5.21533 103.408 5.362C103.394 5.978 103.372 6.65267 103.342 7.386C103.313 8.11933 103.276 8.86 103.232 9.608C103.408 9.52 103.592 9.44667 103.782 9.388C103.973 9.31467 104.171 9.24867 104.376 9.19C104.582 9.11667 104.787 9.04333 104.992 8.97C105.212 8.89667 105.44 8.80133 105.674 8.684C105.689 8.42 105.704 8.156 105.718 7.892C105.733 7.628 105.748 7.37133 105.762 7.122C105.777 6.87267 105.792 6.638 105.806 6.418C105.821 6.18333 105.836 5.96333 105.85 5.758C105.865 5.59667 105.931 5.48667 106.048 5.428C106.18 5.35467 106.312 5.32533 106.444 5.34C106.591 5.36933 106.716 5.43533 106.818 5.538C106.936 5.626 106.994 5.74333 106.994 5.89C106.965 6.47667 106.936 7.12933 106.906 7.848C106.892 8.552 106.87 9.26333 106.84 9.982C106.811 10.7153 106.782 11.434 106.752 12.138C106.723 12.842 106.694 13.48 106.664 14.052C106.635 14.316 106.547 14.514 106.4 14.646C106.268 14.778 106.122 14.844 105.96 14.844C105.814 14.8587 105.674 14.8073 105.542 14.69C105.425 14.5727 105.374 14.404 105.388 14.184C105.403 13.568 105.432 12.908 105.476 12.204C105.52 11.4853 105.564 10.7667 105.608 10.048C105.256 10.092 104.875 10.18 104.464 10.312C104.068 10.4293 103.782 10.5467 103.606 10.664C103.518 10.7227 103.43 10.8033 103.342 10.906C103.254 10.994 103.188 11.0893 103.144 11.192C103.13 11.3973 103.115 11.6027 103.1 11.808C103.086 11.9987 103.078 12.1893 103.078 12.38C103.064 12.5707 103.056 12.754 103.056 12.93C103.056 13.106 103.056 13.2747 103.056 13.436C103.042 13.7293 102.961 13.9493 102.814 14.096C102.668 14.2427 102.514 14.316 102.352 14.316C102.191 14.316 102.044 14.25 101.912 14.118C101.78 13.9713 101.729 13.7587 101.758 13.48C101.788 12.82 101.824 12.138 101.868 11.434C101.927 10.73 101.978 10.026 102.022 9.322C102.066 8.618 102.11 7.92133 102.154 7.232C102.213 6.54267 102.264 5.87533 102.308 5.23ZM114.973 5.648C115.237 5.83867 115.487 6.01467 115.721 6.176C115.956 6.32267 116.191 6.46933 116.425 6.616C116.66 6.77733 116.887 6.93867 117.107 7.1C117.342 7.24667 117.584 7.408 117.833 7.584C117.965 7.68667 118.031 7.81133 118.031 7.958C118.046 8.10467 118.017 8.22933 117.943 8.332C117.87 8.44933 117.76 8.53 117.613 8.574C117.481 8.60333 117.327 8.55933 117.151 8.442C116.858 8.266 116.579 8.09733 116.315 7.936C116.066 7.76 115.817 7.59867 115.567 7.452C115.318 7.29067 115.076 7.13667 114.841 6.99C114.607 6.84333 114.372 6.704 114.137 6.572C113.741 6.99733 113.353 7.408 112.971 7.804C112.59 8.2 112.209 8.55933 111.827 8.882C111.666 9.014 111.505 9.08 111.343 9.08C111.197 9.06533 111.079 9.00667 110.991 8.904C110.889 8.816 110.837 8.69867 110.837 8.552C110.837 8.39067 110.918 8.22933 111.079 8.068C111.959 7.21733 112.7 6.46933 113.301 5.824C113.903 5.17867 114.445 4.57733 114.929 4.02C114.709 4.064 114.475 4.108 114.225 4.152C113.991 4.18133 113.749 4.21067 113.499 4.24C113.265 4.26933 113.015 4.306 112.751 4.35C112.502 4.394 112.26 4.44533 112.025 4.504C111.791 4.548 111.512 4.57733 111.189 4.592C110.867 4.592 110.683 4.47467 110.639 4.24C110.61 3.96133 110.72 3.76333 110.969 3.646C111.219 3.52867 111.439 3.45533 111.629 3.426C111.996 3.39667 112.421 3.34533 112.905 3.272C113.389 3.19867 113.851 3.12533 114.291 3.052C114.731 2.99333 115.113 2.94933 115.435 2.92C115.758 2.876 115.956 2.86133 116.029 2.876C116.205 2.964 116.359 3.11067 116.491 3.316C116.638 3.52133 116.66 3.68267 116.557 3.8C116.425 3.94667 116.293 4.10067 116.161 4.262C116.029 4.40867 115.897 4.55533 115.765 4.702C115.633 4.86333 115.501 5.02467 115.369 5.186C115.237 5.34733 115.105 5.50133 114.973 5.648ZM115.193 11.17C115.179 11.4487 115.164 11.7933 115.149 12.204C115.135 12.6147 115.12 13.0327 115.105 13.458C115.076 13.898 115.054 14.3233 115.039 14.734C115.025 15.13 115.01 15.4673 114.995 15.746C114.966 15.922 114.893 16.0613 114.775 16.164C114.658 16.2667 114.526 16.3253 114.379 16.34C114.233 16.3547 114.101 16.3253 113.983 16.252C113.866 16.164 113.807 16.0173 113.807 15.812C113.793 15.504 113.785 15.152 113.785 14.756C113.8 14.36 113.815 13.9493 113.829 13.524C113.829 13.1133 113.829 12.71 113.829 12.314C113.844 11.9033 113.851 11.544 113.851 11.236C113.177 11.28 112.531 11.3313 111.915 11.39C111.299 11.4487 110.757 11.5 110.287 11.544C110.067 11.5733 109.906 11.544 109.803 11.456C109.701 11.368 109.649 11.258 109.649 11.126C109.649 11.0087 109.693 10.8913 109.781 10.774C109.869 10.642 110.001 10.5613 110.177 10.532C110.749 10.4293 111.417 10.3413 112.179 10.268C112.942 10.1947 113.719 10.1287 114.511 10.07C115.303 10.026 116.073 9.99667 116.821 9.982C117.569 9.95267 118.222 9.938 118.779 9.938C118.999 9.95267 119.153 10.0187 119.241 10.136C119.344 10.2533 119.388 10.378 119.373 10.51C119.359 10.642 119.293 10.7667 119.175 10.884C119.058 10.9867 118.897 11.038 118.691 11.038C118.207 11.038 117.665 11.0527 117.063 11.082C116.462 11.0967 115.839 11.126 115.193 11.17ZM124.241 6.726C124.373 6.506 124.52 6.374 124.681 6.33C124.857 6.286 125.004 6.30067 125.121 6.374C125.239 6.44733 125.319 6.56467 125.363 6.726C125.407 6.88733 125.378 7.06333 125.275 7.254C125.085 7.606 124.887 7.96533 124.681 8.332C124.491 8.684 124.3 9.04333 124.109 9.41C124.623 9.982 125.07 10.4733 125.451 10.884C125.833 11.28 126.287 11.742 126.815 12.27C126.933 12.4167 126.977 12.5707 126.947 12.732C126.933 12.8787 126.881 13.0033 126.793 13.106C126.691 13.194 126.566 13.2527 126.419 13.282C126.273 13.2967 126.148 13.2453 126.045 13.128C125.796 12.8933 125.561 12.6733 125.341 12.468C125.136 12.248 124.931 12.028 124.725 11.808C124.535 11.6027 124.337 11.3973 124.131 11.192C123.926 10.9867 123.713 10.7667 123.493 10.532C123.229 10.9867 122.973 11.434 122.723 11.874C122.474 12.314 122.232 12.732 121.997 13.128C121.865 13.348 121.719 13.4727 121.557 13.502C121.396 13.5167 121.257 13.4873 121.139 13.414C121.007 13.326 120.919 13.2087 120.875 13.062C120.831 12.9007 120.853 12.7393 120.941 12.578C121.235 12.05 121.521 11.5367 121.799 11.038C122.093 10.5393 122.371 10.048 122.635 9.564C122.914 9.08 123.185 8.61067 123.449 8.156C123.713 7.68667 123.977 7.21 124.241 6.726ZM132.535 5.384C132.535 5.22267 132.601 5.11267 132.733 5.054C132.865 4.98067 133.005 4.95133 133.151 4.966C133.283 4.99533 133.408 5.054 133.525 5.142C133.643 5.23 133.701 5.34733 133.701 5.494C133.672 6.09533 133.643 6.76267 133.613 7.496C133.599 8.22933 133.577 8.97733 133.547 9.74C133.518 10.488 133.489 11.2287 133.459 11.962C133.43 12.6807 133.401 13.326 133.371 13.898C133.342 14.162 133.261 14.36 133.129 14.492C132.997 14.624 132.851 14.6973 132.689 14.712C132.528 14.712 132.381 14.6607 132.249 14.558C132.132 14.4407 132.081 14.272 132.095 14.052C132.11 13.392 132.132 12.666 132.161 11.874C132.205 11.082 132.242 10.2973 132.271 9.52C132.315 8.728 132.359 7.97267 132.403 7.254C132.447 6.53533 132.491 5.912 132.535 5.384ZM126.573 9.102C126.896 9.058 127.211 9.00667 127.519 8.948C127.842 8.87467 128.289 8.76467 128.861 8.618C128.949 8.618 129.067 8.58133 129.213 8.508C129.36 8.43467 129.455 8.33933 129.499 8.222C129.514 7.914 129.529 7.61333 129.543 7.32C129.558 7.012 129.573 6.71133 129.587 6.418C129.587 6.13933 129.595 5.868 129.609 5.604C129.624 5.34 129.646 5.08333 129.675 4.834C129.675 4.67267 129.741 4.56267 129.873 4.504C130.005 4.43067 130.145 4.40867 130.291 4.438C130.438 4.45267 130.57 4.51133 130.687 4.614C130.805 4.702 130.863 4.81933 130.863 4.966C130.834 5.56733 130.805 6.286 130.775 7.122C130.761 7.94333 130.739 8.794 130.709 9.674C130.68 10.554 130.651 11.4047 130.621 12.226C130.592 13.0327 130.57 13.722 130.555 14.294C130.541 14.602 130.46 14.8147 130.313 14.932C130.181 15.0493 130.035 15.1007 129.873 15.086C129.697 15.0713 129.543 14.998 129.411 14.866C129.294 14.7193 129.243 14.536 129.257 14.316C129.287 13.6853 129.316 12.974 129.345 12.182C129.375 11.39 129.404 10.576 129.433 9.74C129.155 9.76933 128.891 9.79867 128.641 9.828C128.407 9.85733 128.179 9.894 127.959 9.938C127.739 9.96733 127.519 10.004 127.299 10.048C127.079 10.0773 126.852 10.0993 126.617 10.114C126.471 10.1433 126.346 10.114 126.243 10.026C126.155 9.92333 126.104 9.806 126.089 9.674C126.075 9.55667 126.104 9.43933 126.177 9.322C126.251 9.20467 126.383 9.13133 126.573 9.102ZM139.524 10.29H139.414C139.429 10.5247 139.451 10.7593 139.48 10.994C139.51 11.214 139.539 11.4413 139.568 11.676C139.583 11.896 139.605 12.1233 139.634 12.358C139.664 12.578 139.7 12.798 139.744 13.018C139.979 13.0033 140.221 12.9813 140.47 12.952C140.72 12.9227 140.976 12.886 141.24 12.842C141.255 12.622 141.277 12.4093 141.306 12.204C141.336 11.984 141.365 11.7713 141.394 11.566C141.424 11.346 141.453 11.1333 141.482 10.928C141.512 10.7227 141.548 10.51 141.592 10.29C141.622 10.1433 141.695 10.026 141.812 9.938C141.93 9.83533 142.054 9.77667 142.186 9.762C142.304 9.762 142.406 9.81333 142.494 9.916C142.597 10.004 142.641 10.1507 142.626 10.356C142.597 10.576 142.575 10.7887 142.56 10.994C142.546 11.1847 142.531 11.3753 142.516 11.566C142.502 11.7567 142.487 11.9473 142.472 12.138C142.458 12.314 142.45 12.4973 142.45 12.688C142.656 12.6733 142.861 12.6587 143.066 12.644C143.272 12.6147 143.477 12.5927 143.682 12.578C143.873 12.5633 144.064 12.5487 144.254 12.534C144.46 12.5193 144.658 12.4973 144.848 12.468C145.039 12.468 145.193 12.512 145.31 12.6C145.442 12.688 145.516 12.7907 145.53 12.908C145.56 13.0253 145.53 13.1427 145.442 13.26C145.354 13.3627 145.215 13.4213 145.024 13.436C144.423 13.5387 143.77 13.6413 143.066 13.744C142.377 13.8467 141.666 13.9567 140.932 14.074C140.214 14.1767 139.495 14.2867 138.776 14.404C138.058 14.5067 137.39 14.6093 136.774 14.712C136.584 14.756 136.437 14.7193 136.334 14.602C136.246 14.4847 136.202 14.3527 136.202 14.206C136.188 14.0447 136.217 13.8907 136.29 13.744C136.364 13.5973 136.481 13.5093 136.642 13.48C136.789 13.4653 136.936 13.4507 137.082 13.436C137.244 13.4067 137.405 13.3773 137.566 13.348C137.713 13.3333 137.867 13.3113 138.028 13.282C138.204 13.2527 138.38 13.2233 138.556 13.194C138.542 12.9593 138.527 12.7247 138.512 12.49C138.498 12.2553 138.483 12.0133 138.468 11.764C138.454 11.5293 138.439 11.2873 138.424 11.038C138.424 10.7887 138.424 10.532 138.424 10.268C138.424 10.224 138.424 10.1873 138.424 10.158C138.424 10.1287 138.432 10.092 138.446 10.048C138.168 9.90133 137.97 9.696 137.852 9.432C137.735 9.168 137.684 8.88933 137.698 8.596C137.698 8.112 137.801 7.64267 138.006 7.188C138.226 6.73333 138.498 6.34467 138.82 6.022C139.158 5.68467 139.524 5.428 139.92 5.252C140.331 5.076 140.749 5.01 141.174 5.054C141.541 5.11267 141.878 5.25933 142.186 5.494C142.509 5.72867 142.656 6.154 142.626 6.77C142.597 7.166 142.494 7.56933 142.318 7.98C142.142 8.39067 141.915 8.76467 141.636 9.102C141.343 9.43933 141.013 9.72533 140.646 9.96C140.294 10.18 139.92 10.29 139.524 10.29ZM139.216 9.102C139.392 9.17533 139.598 9.16067 139.832 9.058C140.067 8.95533 140.294 8.794 140.514 8.574C140.734 8.33933 140.932 8.06067 141.108 7.738C141.284 7.41533 141.409 7.06333 141.482 6.682C141.512 6.49133 141.468 6.352 141.35 6.264C141.233 6.16133 141.108 6.11 140.976 6.11C140.756 6.12467 140.573 6.18333 140.426 6.286C140.28 6.38867 140.155 6.51333 140.052 6.66C139.964 6.792 139.876 6.93867 139.788 7.1C139.715 7.26133 139.634 7.408 139.546 7.54C139.488 7.61333 139.422 7.67933 139.348 7.738C139.29 7.782 139.238 7.826 139.194 7.87C139.136 7.92867 139.077 7.98733 139.018 8.046C138.974 8.10467 138.945 8.178 138.93 8.266C138.842 8.47133 138.828 8.64733 138.886 8.794C138.96 8.94067 139.07 9.04333 139.216 9.102Z" fill="black"/>
</svg>
