<svg width="188" height="8" viewBox="0 0 188 8" fill="none" xmlns="http://www.w3.org/2000/svg">
<path d="M2.25034 0.344V1.648C2.25034 2.864 3.10634 3.6 4.01034 3.888V4.336C3.06634 4.064 2.29834 3.432 2.00234 2.728C1.75434 3.44 1.00234 4.128 -0.00565624 4.424V3.976C0.938344 3.664 1.76234 2.848 1.76234 1.648V0.344H2.25034ZM5.98634 5.224H5.49834V2.184H3.73834V1.76H5.49834V0.296H5.98634V5.224ZM6.13034 7.424H0.746344V5.176H1.23434V7H6.13034V7.424ZM10.026 4.328H7.91403V0.384H10.434V0.792H8.39403V2.136H10.346V2.544H8.39403V3.92H9.97003C10.682 3.92 11.226 3.824 11.618 3.552V0.335999H12.09V2.096H13.298V0.296H13.778V4.56H13.298V2.528H12.09V4.512H11.618V3.952C11.258 4.216 10.73 4.328 10.026 4.328ZM13.29 7.512V5.76H8.37803V5.336H13.778V7.512H13.29ZM19.3137 1.36H15.2897V0.944H17.0657V0.0639997H17.5457V0.944H19.3137V1.36ZM15.9937 3.44C15.9937 3.712 16.1057 3.928 16.2977 4.088C16.5457 4.296 16.9057 4.408 17.2977 4.408C17.6977 4.408 18.0577 4.296 18.3057 4.088C18.4977 3.928 18.6097 3.712 18.6097 3.44C18.6097 3.168 18.4977 2.96 18.3057 2.792C18.0577 2.592 17.6977 2.472 17.2977 2.472C16.9057 2.472 16.5457 2.592 16.2977 2.792C16.1057 2.96 15.9937 3.168 15.9937 3.44ZM15.5137 3.44C15.5137 3.04 15.6897 2.704 15.9857 2.472C16.3057 2.216 16.7777 2.064 17.2977 2.064C17.8257 2.064 18.2897 2.216 18.6177 2.472C18.9137 2.704 19.0897 3.04 19.0897 3.44C19.0897 3.84 18.9137 4.176 18.6177 4.408C18.2897 4.672 17.8257 4.808 17.2977 4.808C16.7777 4.808 16.3057 4.672 15.9857 4.408C15.6897 4.176 15.5137 3.84 15.5137 3.44ZM21.1457 0.296V2.44H22.2657V2.88H21.1457V5.44H20.6577V0.296H21.1457ZM16.4657 5.448V7H21.2817V7.424H15.9777V5.448H16.4657ZM28.3779 0.816H25.5379V0.392H28.8659V0.712C28.8659 2.888 27.4419 3.936 25.3619 4.144V3.72C27.1619 3.528 28.3779 2.584 28.3779 0.816ZM31.1379 0.296V2H32.2579V2.424H31.1379V4.24H30.6499V0.296H31.1379ZM25.9699 7.472V4.904H31.1379V7.472H25.9699ZM30.6499 5.328H26.4579V7.056H30.6499V5.328ZM33.3136 0.392H36.8816V0.816H35.3376V1.488C35.3376 2.656 36.1696 3.344 37.0016 3.552V3.992C36.1376 3.784 35.4096 3.232 35.1056 2.528C34.8176 3.248 34.0896 3.896 33.2016 4.088V3.64C34.0656 3.448 34.8496 2.696 34.8496 1.488V0.816H33.3136V0.392ZM39.0176 4.328H38.5296V2.304H36.8576V1.888H38.5296V0.296H39.0176V4.328ZM36.4176 7.568C35.5136 7.568 34.7216 7.432 34.2176 7.104C33.8656 6.872 33.6576 6.552 33.6576 6.128C33.6576 5.704 33.8656 5.392 34.2176 5.152C34.7216 4.824 35.5136 4.68 36.4176 4.68C37.3216 4.68 38.1136 4.824 38.6176 5.152C38.9696 5.392 39.1856 5.704 39.1856 6.128C39.1856 6.552 38.9696 6.872 38.6176 7.104C38.1136 7.432 37.3216 7.568 36.4176 7.568ZM36.4176 5.096C35.6176 5.096 34.9136 5.232 34.5136 5.496C34.2816 5.656 34.1456 5.864 34.1456 6.128C34.1456 6.384 34.2816 6.592 34.5136 6.752C34.9136 7.024 35.6176 7.152 36.4176 7.152C37.2176 7.152 37.9136 7.024 38.3216 6.752C38.5616 6.592 38.6976 6.384 38.6976 6.128C38.6976 5.864 38.5616 5.656 38.3216 5.496C37.9136 5.232 37.2176 5.096 36.4176 5.096ZM41.0253 2.096C41.0253 1.568 41.2493 1.136 41.6493 0.848C42.1693 0.472 42.9453 0.296 43.9613 0.296C44.9773 0.296 45.7533 0.472 46.2733 0.848C46.6653 1.136 46.8973 1.568 46.8973 2.096C46.8973 2.616 46.6653 3.048 46.2733 3.336C45.7533 3.72 44.9773 3.888 43.9613 3.888C42.9453 3.888 42.1693 3.72 41.6493 3.336C41.2493 3.048 41.0253 2.616 41.0253 2.096ZM41.5133 2.096C41.5133 2.464 41.6493 2.768 41.9293 2.984C42.3373 3.296 43.0093 3.464 43.9613 3.464C44.9053 3.464 45.5853 3.296 45.9933 2.984C46.2653 2.768 46.4093 2.464 46.4093 2.096C46.4093 1.728 46.2653 1.424 45.9933 1.2C45.5853 0.88 44.9053 0.72 43.9613 0.72C43.0093 0.72 42.3373 0.88 41.9293 1.2C41.6493 1.424 41.5133 1.728 41.5133 2.096ZM40.7933 5.488V5.056H47.1053V5.488H44.1853V7.512H43.6973V5.488H40.7933ZM53.121 3.92H54.529V4.344H53.249V6.648H54.785V7.056H48.473V6.648H50.049V4.344H48.721V3.92H49.865V0.864H48.865V0.432H54.393V0.864H53.393V2.136C53.393 2.76 53.313 3.496 53.121 3.92ZM52.761 4.344H50.537V6.648H52.761V4.344ZM50.353 0.864V3.92H52.641C52.841 3.472 52.905 2.76 52.905 2.176V0.864H50.353ZM57.0967 1.864V2.624H62.0567V3H56.6087V1.496H61.5207V0.776H56.6087V0.392H62.0087V1.864H57.0967ZM56.1127 4.128V3.736H62.5047V4.128H56.1127ZM57.0967 6.352V7.112H62.1927V7.472H56.6087V5.984H61.5207V5.272H56.6087V4.888H62.0087V6.352H57.0967ZM69.2088 1.92V0.872H66.4168V0.432H69.6968V1.872C69.6968 4.56 68.6248 6.336 66.3688 6.928V6.488C68.2488 5.92 69.2088 4.336 69.2088 1.92ZM71.5288 7.376V0.296H72.0168V7.376H71.5288ZM74.4085 1.872H76.7925V0.392H77.2805V4.296H73.9285V0.392H74.4085V1.872ZM76.7925 3.872V2.288H74.4085V3.872H76.7925ZM79.5285 0.296V2.384H80.6485V2.808H79.5285V5.288H79.0405V0.296H79.5285ZM74.8485 5.272V7H79.6645V7.424H74.3605V5.272H74.8485ZM81.7362 2.48C81.7362 1.816 82.0002 1.28 82.4802 0.912C82.9842 0.528 83.7282 0.344 84.6642 0.344C85.6002 0.344 86.3442 0.528 86.8482 0.912C87.3282 1.28 87.5922 1.816 87.5922 2.48C87.5922 3.128 87.3282 3.68 86.8482 4.024C86.3442 4.416 85.6002 4.6 84.6642 4.6C83.7282 4.6 82.9842 4.416 82.4802 4.024C82.0002 3.68 81.7362 3.128 81.7362 2.48ZM82.2242 2.48C82.2242 2.976 82.4242 3.376 82.7842 3.656C83.1922 3.992 83.8322 4.176 84.6642 4.176C85.4962 4.176 86.1362 3.992 86.5522 3.656C86.9122 3.376 87.1042 2.976 87.1042 2.48C87.1042 1.984 86.9122 1.568 86.5522 1.288C86.1362 0.96 85.4962 0.776 84.6642 0.776C83.8322 0.776 83.1922 0.96 82.7842 1.288C82.4242 1.568 82.2242 1.984 82.2242 2.48ZM81.5042 7.056V6.648H87.8162V7.056H81.5042ZM90.0639 2.84V4.392H95.1919V4.816H92.5999V6.648H95.4959V7.056H89.1839V6.648H92.1119V4.816H89.5759V2.416H94.6159V0.864H89.5759V0.432H95.1039V2.84H90.0639ZM99.2801 3.76V0.392H102.632V3.76H99.2801ZM102.144 0.816H99.7601V3.344H102.144V0.816ZM104.88 0.296V2H106V2.424H104.88V4.24H104.392V0.296H104.88ZM102.28 6.336C101.912 7.008 100.832 7.44 99.4881 7.472V7.056C100.824 7.048 102.024 6.504 102.024 5.632V5.328H99.7121V4.904H104.88V5.328H102.512V5.632C102.512 6.512 103.752 7.04 105.096 7.056V7.472C103.736 7.432 102.624 6.992 102.28 6.336ZM107.312 1.2V0.784H109.76V0.0239997H110.248V0.784H112.712V1.2H110.248C110.304 2.016 111.736 2.592 112.808 2.672V3.096C111.656 3.008 110.448 2.504 110.008 1.816C109.536 2.512 108.32 3.024 107.192 3.096V2.672C108.256 2.616 109.704 2.008 109.76 1.2H107.312ZM106.816 4.272V3.848H113.208V4.272H110.248V5.304H112.712V7.472H107.312V5.304H109.76V4.272H106.816ZM112.224 7.064V5.72H107.8V7.064H112.224ZM118.471 1.272H114.471V0.864H116.247V0.0639997H116.727V0.864H118.471V1.272ZM115.167 3.12C115.167 3.352 115.279 3.552 115.463 3.688C115.695 3.88 116.071 3.984 116.479 3.984C116.887 3.984 117.271 3.88 117.495 3.688C117.679 3.552 117.791 3.352 117.791 3.12C117.791 2.888 117.679 2.704 117.495 2.56C117.271 2.368 116.887 2.264 116.479 2.264C116.071 2.264 115.695 2.368 115.463 2.56C115.279 2.704 115.167 2.888 115.167 3.12ZM114.687 3.12C114.687 2.752 114.855 2.456 115.135 2.248C115.463 2 115.935 1.872 116.479 1.872C117.031 1.872 117.495 2 117.823 2.248C118.103 2.456 118.271 2.752 118.271 3.12C118.271 3.488 118.103 3.784 117.823 4C117.495 4.24 117.031 4.376 116.479 4.376C115.935 4.376 115.463 4.24 115.135 4C114.855 3.784 114.687 3.488 114.687 3.12ZM118.567 2.232V1.824H119.951V0.296H120.439V4.632H119.951V3.648H118.567V3.24H119.951V2.232H118.567ZM115.079 6.304C115.079 5.944 115.263 5.664 115.599 5.464C116.079 5.168 116.871 5.04 117.839 5.04C118.807 5.04 119.607 5.168 120.087 5.464C120.415 5.664 120.607 5.944 120.607 6.304C120.607 6.672 120.415 6.952 120.087 7.152C119.607 7.44 118.807 7.568 117.839 7.568C116.871 7.568 116.079 7.44 115.599 7.152C115.263 6.952 115.079 6.672 115.079 6.304ZM115.567 6.304C115.567 6.512 115.687 6.68 115.887 6.808C116.263 7.048 116.959 7.152 117.839 7.152C118.719 7.152 119.407 7.048 119.791 6.808C119.999 6.68 120.119 6.512 120.119 6.304C120.119 6.096 119.999 5.928 119.791 5.8C119.407 5.568 118.719 5.456 117.839 5.456C116.959 5.456 116.263 5.568 115.887 5.8C115.687 5.928 115.567 6.096 115.567 6.304ZM124.728 0.392H128.296V0.808H126.752V1.192C126.752 2.32 127.592 2.968 128.416 3.152V3.592C127.552 3.392 126.824 2.888 126.52 2.224C126.232 2.904 125.504 3.504 124.616 3.688V3.248C125.472 3.064 126.264 2.352 126.264 1.192V0.808H124.728V0.392ZM130.432 3.648H129.944V0.296H130.432V3.648ZM125.68 6.104V7.072H130.528V7.472H125.192V5.704H129.944V4.728H125.192V4.328H130.432V6.104H125.68ZM138.063 2.96H132.663V0.392H138.063V2.96ZM137.575 2.536V0.808H133.151V2.536H137.575ZM132.167 4.488V4.064H138.559V4.488H135.695V5.96H135.207V4.488H132.167ZM133.151 5.464V7H138.207V7.424H132.663V5.464H133.151ZM143.199 3.648C143.199 2.4 143.063 1.504 142.663 1.056C142.471 0.84 142.207 0.72 141.879 0.72C141.559 0.72 141.295 0.84 141.095 1.056C140.703 1.504 140.567 2.4 140.567 3.648C140.567 4.904 140.703 5.808 141.095 6.256C141.295 6.464 141.559 6.576 141.879 6.576C142.207 6.576 142.471 6.464 142.663 6.256C143.063 5.808 143.199 4.904 143.199 3.648ZM140.079 3.648C140.079 2.288 140.247 1.296 140.743 0.76C141.015 0.456 141.407 0.296 141.879 0.296C142.351 0.296 142.735 0.456 143.015 0.76C143.519 1.296 143.687 2.288 143.687 3.648C143.687 5.008 143.519 6.008 143.015 6.544C142.735 6.856 142.351 6.984 141.879 6.984C141.407 6.984 141.015 6.856 140.743 6.544C140.247 6.008 140.079 5.008 140.079 3.648ZM145.271 7.376V0.296H145.759V7.376H145.271ZM150.583 3.072H152.183V0.432H152.663V6.88H150.111V0.432H150.583V3.072ZM152.183 6.472V3.496H150.583V6.472H152.183ZM155.863 7.384H155.383V3.728H154.167V7.304H153.687V0.335999H154.167V3.288H155.383V0.296H155.863V7.384ZM160.919 3.36H157.663V0.384H161.015V0.808H158.151V2.944H161.007C161.767 2.944 162.367 2.816 162.775 2.512V0.296H163.263V1.728H164.383V2.16H163.263V3.704H162.775V2.92C162.383 3.24 161.743 3.36 160.919 3.36ZM158.583 6.104V7.072H163.359V7.472H158.095V5.704H162.775V4.728H158.095V4.328H163.263V6.104H158.583ZM169.135 0.808H166.079V2.224H169.175V2.64H167.639V3.648H168.983C169.703 3.648 170.311 3.504 170.655 3.264V0.288H171.143V4.424H170.655V3.664C170.287 3.944 169.695 4.072 168.879 4.072H165.175V3.648H167.151V2.64H165.599V0.392H169.135V0.808ZM170.655 5.744V4.944H171.143V7.472H165.903V4.944H166.391V5.744H170.655ZM170.655 6.16H166.391V7.064H170.655V6.16ZM176.214 6.888H173.19V0.384H173.678V6.464H176.294C177.11 6.464 177.854 6.224 178.302 5.8V0.296H178.79V7.376H178.302V6.208C177.886 6.648 177.102 6.888 176.214 6.888ZM183.854 6.888H180.806V0.424H184.11V0.864H181.294V6.464H183.918C184.702 6.464 185.406 6.24 185.814 5.848V0.296H186.302V3.344H187.494V3.76H186.302V7.384H185.814V6.264C185.438 6.672 184.678 6.888 183.854 6.888Z" fill="black"/>
</svg>
