<svg width="179" height="25" viewBox="0 0 179 25" fill="none" xmlns="http://www.w3.org/2000/svg">
<path d="M5.32082 13.85C4.42082 13.87 3.77082 13.64 3.37082 13.16C2.99082 12.68 2.81082 12.14 2.83082 11.54C2.83082 10.88 2.97082 10.24 3.25082 9.62C3.55082 9 3.92082 8.47 4.36082 8.03C4.82082 7.57 5.32082 7.22 5.86082 6.98C6.42082 6.74 6.99082 6.65 7.57082 6.71C8.07082 6.79 8.53082 6.99 8.95082 7.31C9.39082 7.63 9.59082 8.21 9.55082 9.05C9.49082 9.87 9.19082 10.71 8.65082 11.57C8.13082 12.43 7.49082 13.06 6.73082 13.46C6.73082 13.76 6.73082 14.08 6.73082 14.42C6.75082 14.76 6.76082 15.1 6.76082 15.44C6.78082 15.78 6.79082 16.12 6.79082 16.46C6.81082 16.8 6.83082 17.12 6.85082 17.42C7.85082 17.3 8.84082 17.19 9.82082 17.09C10.8008 16.97 11.7208 16.88 12.5808 16.82C12.8408 16.82 13.0508 16.88 13.2108 17C13.3908 17.12 13.4908 17.26 13.5108 17.42C13.5508 17.58 13.5108 17.74 13.3908 17.9C13.2708 18.04 13.0808 18.12 12.8208 18.14C12.0008 18.28 11.1108 18.42 10.1508 18.56C9.21082 18.7 8.24082 18.85 7.24082 19.01C6.26082 19.15 5.28082 19.3 4.30082 19.46C3.32082 19.6 2.41082 19.74 1.57082 19.88C1.31082 19.94 1.11082 19.89 0.97082 19.73C0.85082 19.57 0.79082 19.39 0.79082 19.19C0.77082 18.97 0.81082 18.76 0.91082 18.56C1.01082 18.36 1.17082 18.24 1.39082 18.2C1.67082 18.16 1.96082 18.12 2.26082 18.08C2.56082 18.04 2.87082 17.99 3.19082 17.93C3.51082 17.89 3.83082 17.85 4.15082 17.81C4.49082 17.75 4.83082 17.69 5.17082 17.63C5.17082 17.03 5.18082 16.41 5.20082 15.77C5.24082 15.13 5.28082 14.49 5.32082 13.85ZM4.90082 12.23C5.14082 12.33 5.42082 12.31 5.74082 12.17C6.06082 12.03 6.37082 11.81 6.67082 11.51C6.97082 11.19 7.24082 10.81 7.48082 10.37C7.72082 9.93 7.89082 9.45 7.99082 8.93C8.03082 8.67 7.97082 8.48 7.81082 8.36C7.65082 8.22 7.48082 8.15 7.30082 8.15C7.00082 8.17 6.75082 8.25 6.55082 8.39C6.35082 8.53 6.18082 8.7 6.04082 8.9C5.92082 9.08 5.80082 9.28 5.68082 9.5C5.58082 9.72 5.47082 9.92 5.35082 10.1C5.27082 10.2 5.18082 10.29 5.08082 10.37C5.00082 10.43 4.93082 10.49 4.87082 10.55C4.79082 10.63 4.71082 10.71 4.63082 10.79C4.57082 10.87 4.53082 10.97 4.51082 11.09C4.39082 11.37 4.37082 11.61 4.45082 11.81C4.55082 12.01 4.70082 12.15 4.90082 12.23ZM18.1308 1.94C18.1708 1.64 18.3008 1.41 18.5208 1.25C18.7408 1.07 18.9608 1.01 19.1808 1.07C19.3608 1.13 19.4808 1.27 19.5408 1.49C19.6008 1.69 19.6308 1.87 19.6308 2.03C19.5908 2.39 19.5608 2.76 19.5408 3.14C19.5208 3.5 19.5008 3.86 19.4808 4.22C19.4608 4.6 19.4408 4.97 19.4208 5.33C19.4208 5.69 19.4208 6.03 19.4208 6.35C19.9008 6.27 20.3908 6.19 20.8908 6.11C21.4108 6.01 21.9308 5.91 22.4508 5.81C22.9908 5.73 23.5208 5.65 24.0408 5.57C24.5608 5.49 25.0808 5.42 25.6008 5.36C25.8408 5.36 26.0308 5.44 26.1708 5.6C26.3308 5.74 26.4108 5.9 26.4108 6.08C26.4108 6.32 26.3308 6.5 26.1708 6.62C26.0308 6.74 25.7708 6.83 25.3908 6.89C24.4108 7.07 23.3908 7.26 22.3308 7.46C21.2708 7.64 20.2108 7.8 19.1508 7.94C18.7508 8 18.4008 7.9 18.1008 7.64C17.8208 7.36 17.7008 7.03 17.7408 6.65C17.7408 6.29 17.7508 5.92 17.7708 5.54C17.7908 5.14 17.8108 4.73 17.8308 4.31C17.8708 3.91 17.9108 3.51 17.9508 3.11C17.9908 2.71 18.0508 2.32 18.1308 1.94ZM16.5408 11.3C17.3008 11.12 18.1608 10.95 19.1208 10.79C20.1008 10.63 21.0908 10.49 22.0908 10.37C23.1108 10.25 24.0908 10.15 25.0308 10.07C25.9908 9.99 26.8408 9.93 27.5808 9.89C27.8608 9.89 28.0708 9.97 28.2108 10.13C28.3508 10.29 28.4208 10.48 28.4208 10.7C28.4208 10.9 28.3408 11.1 28.1808 11.3C28.0408 11.48 27.8308 11.57 27.5508 11.57C26.7508 11.61 25.8708 11.68 24.9108 11.78C23.9708 11.86 23.0208 11.95 22.0608 12.05C21.1008 12.17 20.1608 12.29 19.2408 12.41C18.3208 12.53 17.5008 12.65 16.7808 12.77C16.4808 12.83 16.2608 12.8 16.1208 12.68C15.9808 12.54 15.9008 12.38 15.8808 12.2C15.8608 12.02 15.9108 11.84 16.0308 11.66C16.1508 11.48 16.3208 11.36 16.5408 11.3ZM17.4108 17.03C17.3308 16.73 17.4108 16.48 17.6508 16.28C17.8908 16.08 18.1608 15.92 18.4608 15.8C18.9408 15.62 19.4508 15.45 19.9908 15.29C20.5508 15.13 21.0908 14.99 21.6108 14.87C22.1308 14.75 22.6108 14.66 23.0508 14.6C23.4908 14.52 23.8308 14.47 24.0708 14.45C24.3708 14.45 24.7108 14.59 25.0908 14.87C25.4708 15.15 25.6608 15.44 25.6608 15.74C25.6608 16.02 25.6108 16.37 25.5108 16.79C25.4308 17.21 25.3308 17.62 25.2108 18.02C25.0908 18.42 24.9708 18.78 24.8508 19.1C24.7508 19.4 24.6808 19.57 24.6408 19.61C24.4408 19.77 24.1608 19.94 23.8008 20.12C23.4608 20.28 23.0808 20.44 22.6608 20.6C22.2408 20.78 21.8108 20.96 21.3708 21.14C20.9308 21.32 20.5308 21.49 20.1708 21.65C20.0508 21.71 19.9508 21.81 19.8708 21.95C19.7908 22.09 19.7608 22.25 19.7808 22.43C19.7808 22.61 19.8708 22.74 20.0508 22.82C20.2308 22.9 20.4408 22.93 20.6808 22.91C21.2808 22.89 21.8408 22.85 22.3608 22.79C22.9008 22.73 23.4808 22.63 24.1008 22.49C24.2208 22.47 24.3608 22.44 24.5208 22.4C24.6808 22.34 24.8508 22.28 25.0308 22.22C25.1908 22.16 25.3508 22.11 25.5108 22.07C25.6708 22.01 25.8208 21.97 25.9608 21.95C26.1408 21.95 26.3208 22.02 26.5008 22.16C26.6808 22.28 26.7808 22.43 26.8008 22.61C26.8408 22.83 26.7808 23.05 26.6208 23.27C26.4808 23.51 26.1308 23.68 25.5708 23.78C24.7108 23.94 23.8108 24.08 22.8708 24.2C21.9508 24.34 21.0508 24.38 20.1708 24.32C19.3708 24.28 18.7808 24.1 18.4008 23.78C18.0208 23.48 17.8308 23.09 17.8308 22.61C17.8308 22.17 17.9008 21.8 18.0408 21.5C18.1808 21.2 18.4608 20.93 18.8808 20.69C19.2408 20.49 19.6008 20.31 19.9608 20.15C20.3208 19.97 20.6908 19.8 21.0708 19.64C21.4508 19.48 21.8308 19.32 22.2108 19.16C22.5908 18.98 22.9808 18.8 23.3808 18.62C23.5408 18.28 23.6808 17.86 23.8008 17.36C23.9208 16.86 24.0208 16.42 24.1008 16.04C23.6408 16.08 23.2108 16.14 22.8108 16.22C22.4108 16.3 22.0208 16.4 21.6408 16.52C21.2408 16.62 20.8408 16.74 20.4408 16.88C20.0608 17 19.6508 17.13 19.2108 17.27C18.9108 17.39 18.5508 17.46 18.1308 17.48C17.7108 17.48 17.4708 17.33 17.4108 17.03ZM43.6095 9.41C43.4695 8.63 43.3195 7.88 43.1595 7.16C43.0195 6.42 42.8595 5.6 42.6795 4.7C42.6195 4.5 42.6495 4.31 42.7695 4.13C42.8895 3.95 43.0395 3.82 43.2195 3.74C43.3995 3.66 43.5795 3.65 43.7595 3.71C43.9395 3.75 44.0595 3.88 44.1195 4.1C44.1995 4.54 44.2895 4.98 44.3895 5.42C44.4895 5.84 44.5995 6.26 44.7195 6.68C44.8195 7.1 44.9195 7.52 45.0195 7.94C45.1195 8.34 45.2195 8.73 45.3195 9.11C45.7995 9.03 46.2695 8.94 46.7295 8.84C47.1895 8.74 47.6595 8.62 48.1395 8.48C48.6195 8.36 48.9595 8.36 49.1595 8.48C49.3795 8.6 49.5095 8.78 49.5495 9.02C49.5695 9.2 49.5095 9.41 49.3695 9.65C49.2495 9.89 48.8995 10.04 48.3195 10.1C47.5995 10.22 46.8595 10.35 46.0995 10.49C45.3395 10.61 44.5995 10.73 43.8795 10.85C43.1395 10.97 42.4495 11.08 41.8095 11.18C41.1695 11.28 40.6195 11.37 40.1595 11.45C39.8595 11.49 39.6295 11.44 39.4695 11.3C39.3095 11.16 39.2295 10.99 39.2295 10.79C39.2095 10.59 39.2595 10.4 39.3795 10.22C39.5195 10.04 39.7395 9.93 40.0395 9.89C40.3595 9.85 40.6695 9.81 40.9695 9.77C41.2695 9.73 41.5695 9.69 41.8695 9.65C42.1695 9.61 42.4595 9.57 42.7395 9.53C43.0395 9.49 43.3295 9.45 43.6095 9.41ZM44.6895 12.83C45.2295 12.85 45.7695 13.07 46.3095 13.49C46.8495 13.91 47.0695 14.54 46.9695 15.38C46.9095 15.84 46.7495 16.31 46.4895 16.79C46.2295 17.25 45.9095 17.66 45.5295 18.02C45.1495 18.4 44.7195 18.7 44.2395 18.92C43.7795 19.14 43.3195 19.24 42.8595 19.22C42.1995 19.22 41.7195 19.03 41.4195 18.65C41.1395 18.27 40.9995 17.85 40.9995 17.39C40.9995 16.91 41.0895 16.4 41.2695 15.86C41.4495 15.32 41.7095 14.83 42.0495 14.39C42.3695 13.93 42.7495 13.56 43.1895 13.28C43.6495 12.98 44.1495 12.83 44.6895 12.83ZM44.5695 14.42C44.3295 14.42 44.0995 14.51 43.8795 14.69C43.6595 14.87 43.4695 15.09 43.3095 15.35C43.1295 15.59 42.9795 15.86 42.8595 16.16C42.7595 16.44 42.7095 16.69 42.7095 16.91C42.7095 17.15 42.7695 17.32 42.8895 17.42C43.0295 17.5 43.1795 17.54 43.3395 17.54C43.7595 17.54 44.1995 17.31 44.6595 16.85C45.1195 16.37 45.3795 15.83 45.4395 15.23C45.4395 14.99 45.3495 14.8 45.1695 14.66C45.0095 14.5 44.8095 14.42 44.5695 14.42ZM51.4095 6.41C51.4095 6.19 51.4895 6.04 51.6495 5.96C51.8095 5.88 51.9895 5.86 52.1895 5.9C52.3695 5.92 52.5395 6 52.6995 6.14C52.8595 6.26 52.9395 6.42 52.9395 6.62C52.8995 7.46 52.8395 8.47 52.7595 9.65C52.6995 10.81 52.6295 11.99 52.5495 13.19C52.6295 13.13 52.7095 13.07 52.7895 13.01C52.8895 12.95 52.9895 12.91 53.0895 12.89C53.5895 12.77 54.0895 12.68 54.5895 12.62C55.1095 12.56 55.7195 12.51 56.4195 12.47C56.6195 12.47 56.7995 12.53 56.9595 12.65C57.1195 12.77 57.1895 12.91 57.1695 13.07C57.1495 13.31 57.0795 13.51 56.9595 13.67C56.8595 13.83 56.6295 13.94 56.2695 14C55.9895 14.04 55.7095 14.08 55.4295 14.12C55.1695 14.14 54.9095 14.17 54.6495 14.21C54.3895 14.23 54.1395 14.26 53.8995 14.3C53.6595 14.34 53.4395 14.39 53.2395 14.45C53.0595 14.51 52.8895 14.59 52.7295 14.69C52.5895 14.77 52.4895 14.9 52.4295 15.08C52.3695 15.88 52.3195 16.64 52.2795 17.36C52.2395 18.06 52.2195 18.68 52.2195 19.22C52.1995 19.68 52.0895 20.01 51.8895 20.21C51.6895 20.41 51.4795 20.5 51.2595 20.48C51.0195 20.48 50.8095 20.38 50.6295 20.18C50.4695 19.98 50.4195 19.71 50.4795 19.37C50.5595 18.47 50.6395 17.45 50.7195 16.31C50.8195 15.17 50.9095 14.02 50.9895 12.86C51.0495 11.68 51.1095 10.53 51.1695 9.41C51.2495 8.29 51.3295 7.29 51.4095 6.41ZM61.2218 4.22C61.9418 3.9 62.6518 3.65 63.3518 3.47C64.0518 3.29 64.8518 3.15 65.7518 3.05C66.2318 3.01 66.6218 3.17 66.9218 3.53C67.2418 3.87 67.4018 4.22 67.4018 4.58C67.3818 5.5 67.2818 6.29 67.1018 6.95C66.9418 7.61 66.6818 8.06 66.3218 8.3C66.0618 8.5 65.7718 8.69 65.4518 8.87C65.1318 9.03 64.8018 9.2 64.4618 9.38C64.1218 9.56 63.7718 9.75 63.4118 9.95C63.0518 10.13 62.7118 10.34 62.3918 10.58C62.0918 10.78 62.0018 11.04 62.1218 11.36C62.2418 11.68 62.4918 11.83 62.8718 11.81C63.2918 11.81 63.6818 11.78 64.0418 11.72C64.4018 11.66 64.7418 11.6 65.0618 11.54C65.3618 11.46 65.6618 11.39 65.9618 11.33C66.2618 11.25 66.5718 11.19 66.8918 11.15C67.3718 11.09 67.7218 11.15 67.9418 11.33C68.1818 11.51 68.3018 11.78 68.3018 12.14C68.3018 12.38 68.1218 12.56 67.7618 12.68C67.4018 12.78 67.0918 12.83 66.8318 12.83C66.4518 12.85 66.0818 12.89 65.7218 12.95C65.3618 12.99 65.0018 13.03 64.6418 13.07C64.2818 13.11 63.9218 13.15 63.5618 13.19C63.2018 13.23 62.8418 13.24 62.4818 13.22C62.1418 13.22 61.8018 13.15 61.4618 13.01C61.1418 12.85 60.8618 12.58 60.6218 12.2C60.4018 11.84 60.3318 11.39 60.4118 10.85C60.4918 10.29 60.7818 9.83 61.2818 9.47C61.6218 9.23 61.9518 9.02 62.2718 8.84C62.6118 8.64 62.9518 8.46 63.2918 8.3C63.6118 8.14 63.9218 7.97 64.2218 7.79C64.5418 7.61 64.8518 7.4 65.1518 7.16C65.3918 6.98 65.5518 6.69 65.6318 6.29C65.7118 5.87 65.7618 5.31 65.7818 4.61C65.4418 4.63 65.1018 4.68 64.7618 4.76C64.4218 4.82 64.0818 4.89 63.7418 4.97C63.4018 5.07 63.0618 5.18 62.7218 5.3C62.3818 5.42 62.0418 5.52 61.7018 5.6C61.4418 5.68 61.2318 5.67 61.0718 5.57C60.9118 5.47 60.8018 5.34 60.7418 5.18C60.7018 5 60.7118 4.82 60.7718 4.64C60.8518 4.46 61.0018 4.32 61.2218 4.22ZM58.6118 16.16C59.3918 16.02 60.3018 15.9 61.3418 15.8C62.3818 15.7 63.4418 15.61 64.5218 15.53C65.6018 15.47 66.6518 15.43 67.6718 15.41C68.6918 15.37 69.5818 15.35 70.3418 15.35C70.6218 15.37 70.8218 15.46 70.9418 15.62C71.0818 15.78 71.1518 15.95 71.1518 16.13C71.1318 16.31 71.0418 16.48 70.8818 16.64C70.7218 16.78 70.4918 16.85 70.1918 16.85C69.5518 16.85 68.8418 16.87 68.0618 16.91C67.2818 16.93 66.4718 16.96 65.6318 17C65.5318 17.1 65.4618 17.23 65.4218 17.39C65.3818 17.55 65.3618 17.69 65.3618 17.81C65.3018 18.57 65.2518 19.25 65.2118 19.85C65.1918 20.43 65.1518 21.14 65.0918 21.98C65.0718 22.22 64.9818 22.41 64.8218 22.55C64.6618 22.69 64.4818 22.76 64.2818 22.76C64.1018 22.78 63.9318 22.73 63.7718 22.61C63.6118 22.49 63.5318 22.29 63.5318 22.01C63.5318 21.59 63.5318 21.17 63.5318 20.75C63.5518 20.33 63.5718 19.91 63.5918 19.49C63.6118 19.09 63.6218 18.7 63.6218 18.32C63.6218 17.92 63.6218 17.52 63.6218 17.12C62.7018 17.18 61.8118 17.25 60.9518 17.33C60.1118 17.41 59.3718 17.48 58.7318 17.54C58.4318 17.58 58.2118 17.54 58.0718 17.42C57.9518 17.3 57.8918 17.15 57.8918 16.97C57.8918 16.81 57.9518 16.65 58.0718 16.49C58.1918 16.31 58.3718 16.2 58.6118 16.16ZM76.59 5.24C76.65 4.94 76.78 4.71 76.98 4.55C77.18 4.37 77.4 4.31 77.64 4.37C77.82 4.43 77.93 4.57 77.97 4.79C78.03 4.99 78.06 5.17 78.06 5.33C78.04 5.69 78.02 6.06 78 6.44C77.98 6.8 77.96 7.16 77.94 7.52C77.9 7.9 77.87 8.27 77.85 8.63C77.85 8.99 77.85 9.33 77.85 9.65C78.33 9.57 78.82 9.49 79.32 9.41C79.84 9.31 80.37 9.21 80.91 9.11C81.43 9.03 81.95 8.95 82.47 8.87C83.01 8.79 83.54 8.72 84.06 8.66C84.32 8.66 84.52 8.74 84.66 8.9C84.8 9.04 84.87 9.2 84.87 9.38C84.87 9.62 84.79 9.8 84.63 9.92C84.49 10.04 84.23 10.13 83.85 10.19C82.89 10.37 81.87 10.56 80.79 10.76C79.71 10.94 78.65 11.1 77.61 11.24C77.19 11.3 76.84 11.2 76.56 10.94C76.28 10.66 76.15 10.33 76.17 9.95C76.19 9.59 76.21 9.22 76.23 8.84C76.27 8.44 76.3 8.03 76.32 7.61C76.36 7.21 76.4 6.81 76.44 6.41C76.48 6.01 76.53 5.62 76.59 5.24ZM74.46 14.57C75.2 14.43 76.05 14.29 77.01 14.15C77.99 14.01 78.98 13.87 79.98 13.73C80.98 13.61 81.95 13.51 82.89 13.43C83.85 13.33 84.7 13.26 85.44 13.22C85.74 13.22 85.96 13.3 86.1 13.46C86.24 13.6 86.31 13.77 86.31 13.97C86.31 14.17 86.23 14.36 86.07 14.54C85.93 14.7 85.71 14.78 85.41 14.78C84.43 14.84 83.33 14.94 82.11 15.08C80.91 15.2 79.72 15.33 78.54 15.47C78.54 15.53 78.54 15.58 78.54 15.62C78.56 15.66 78.57 15.7 78.57 15.74C78.53 16.1 78.5 16.47 78.48 16.85C78.46 17.21 78.44 17.58 78.42 17.96C78.4 18.34 78.38 18.72 78.36 19.1C78.36 19.46 78.36 19.8 78.36 20.12C78.82 20.04 79.27 19.95 79.71 19.85C80.15 19.75 80.6 19.65 81.06 19.55C81.5 19.47 81.95 19.39 82.41 19.31C82.87 19.21 83.36 19.12 83.88 19.04C84.14 19.02 84.39 19.06 84.63 19.16C84.89 19.26 85.02 19.46 85.02 19.76C85.02 19.96 84.94 20.14 84.78 20.3C84.64 20.44 84.38 20.54 84 20.6C83.5 20.7 83.01 20.8 82.53 20.9C82.05 20.98 81.57 21.07 81.09 21.17C80.61 21.25 80.12 21.34 79.62 21.44C79.12 21.52 78.61 21.59 78.09 21.65C77.69 21.71 77.34 21.61 77.04 21.35C76.76 21.07 76.64 20.74 76.68 20.36C76.7 20.02 76.72 19.65 76.74 19.25C76.76 18.85 76.78 18.45 76.8 18.05C76.84 17.65 76.88 17.25 76.92 16.85C76.96 16.45 77.01 16.06 77.07 15.68C76.85 15.72 76.63 15.76 76.41 15.8C76.19 15.84 75.98 15.87 75.78 15.89C75.58 15.93 75.38 15.97 75.18 16.01C75 16.03 74.83 16.05 74.67 16.07C74.37 16.13 74.14 16.1 73.98 15.98C73.84 15.84 73.77 15.67 73.77 15.47C73.75 15.29 73.8 15.11 73.92 14.93C74.04 14.75 74.22 14.63 74.46 14.57ZM100.659 15.59C100.159 15.59 99.7087 15.41 99.3087 15.05C98.9087 14.69 98.7187 14.21 98.7387 13.61C98.7587 12.97 98.8887 12.39 99.1287 11.87C99.3887 11.35 99.6987 10.91 100.059 10.55C100.439 10.17 100.849 9.89 101.289 9.71C101.749 9.51 102.209 9.42 102.669 9.44C103.209 9.46 103.739 9.65 104.259 10.01C104.779 10.37 105.039 10.84 105.039 11.42C105.379 11.34 105.729 11.26 106.089 11.18C106.449 11.08 106.819 10.98 107.199 10.88C107.559 10.78 107.919 10.69 108.279 10.61C108.659 10.51 109.039 10.41 109.419 10.31C109.519 10.31 109.669 10.26 109.869 10.16C110.089 10.06 110.229 9.95 110.289 9.83L110.469 6.95C110.469 6.63 110.559 6.39 110.739 6.23C110.939 6.07 111.149 5.99 111.369 5.99C111.589 5.99 111.789 6.07 111.969 6.23C112.149 6.39 112.239 6.63 112.239 6.95C112.179 7.75 112.099 8.71 111.999 9.83C111.919 10.95 111.839 12.1 111.759 13.28C111.679 14.48 111.599 15.64 111.519 16.76C111.459 17.88 111.409 18.84 111.369 19.64C111.349 19.9 111.249 20.1 111.069 20.24C110.889 20.38 110.689 20.45 110.469 20.45C110.269 20.47 110.079 20.42 109.899 20.3C109.739 20.16 109.669 19.95 109.689 19.67C109.709 19.11 109.739 18.53 109.779 17.93C109.819 17.31 109.859 16.67 109.899 16.01C109.939 15.35 109.979 14.68 110.019 14C110.059 13.3 110.109 12.59 110.169 11.87C109.749 11.93 109.299 12.01 108.819 12.11C108.359 12.21 107.889 12.31 107.409 12.41C106.949 12.51 106.489 12.61 106.029 12.71C105.589 12.79 105.179 12.84 104.799 12.86C104.759 12.88 104.729 12.89 104.709 12.89C104.349 13.69 103.789 14.35 103.029 14.87C102.269 15.39 101.479 15.63 100.659 15.59ZM100.389 13.37C100.389 13.49 100.419 13.62 100.479 13.76C100.559 13.88 100.709 13.94 100.929 13.94C101.149 13.96 101.389 13.92 101.649 13.82C101.929 13.72 102.189 13.58 102.429 13.4C102.669 13.2 102.869 12.97 103.029 12.71C103.209 12.45 103.309 12.17 103.329 11.87C103.329 11.59 103.239 11.38 103.059 11.24C102.899 11.08 102.729 11 102.549 11C102.269 11 101.999 11.08 101.739 11.24C101.479 11.38 101.249 11.57 101.049 11.81C100.849 12.05 100.689 12.31 100.569 12.59C100.449 12.87 100.389 13.13 100.389 13.37ZM122.298 7.58C122.358 7.88 122.398 8.19 122.418 8.51C122.438 8.83 122.448 9.11 122.448 9.35C122.448 9.63 122.438 9.91 122.418 10.19C122.418 10.47 122.418 10.74 122.418 11C122.418 11.28 122.418 11.54 122.418 11.78C122.438 12 122.468 12.2 122.508 12.38C122.768 12.38 123.078 12.35 123.438 12.29C123.818 12.21 124.228 12.11 124.668 11.99C125.088 11.89 125.528 11.78 125.988 11.66C126.448 11.54 126.908 11.44 127.368 11.36C127.388 10.88 127.408 10.4 127.428 9.92C127.448 9.42 127.468 8.92 127.488 8.42C127.508 7.9 127.528 7.36 127.548 6.8C127.588 6.22 127.628 5.59 127.668 4.91C127.668 4.71 127.748 4.56 127.908 4.46C128.068 4.36 128.238 4.31 128.418 4.31C128.598 4.33 128.768 4.4 128.928 4.52C129.088 4.62 129.168 4.77 129.168 4.97C129.148 5.33 129.128 5.68 129.108 6.02C129.108 6.36 129.108 6.68 129.108 6.98C129.088 7.3 129.068 7.61 129.048 7.91C129.048 8.21 129.048 8.5 129.048 8.78C129.348 8.74 129.728 8.65 130.188 8.51C130.648 8.37 131.048 8.21 131.388 8.03C131.508 7.99 131.628 7.93 131.748 7.85C131.888 7.77 132.008 7.67 132.108 7.55C132.108 7.33 132.118 7.11 132.138 6.89C132.158 6.65 132.178 6.41 132.198 6.17C132.218 5.93 132.238 5.69 132.258 5.45C132.278 5.21 132.308 4.95 132.348 4.67C132.348 4.45 132.428 4.3 132.588 4.22C132.748 4.12 132.928 4.08 133.128 4.1C133.308 4.12 133.468 4.2 133.608 4.34C133.768 4.46 133.848 4.62 133.848 4.82C133.808 5.62 133.768 6.34 133.728 6.98C133.708 7.62 133.688 8.25 133.668 8.87C133.628 9.47 133.588 10.09 133.548 10.73C133.528 11.35 133.498 12.05 133.458 12.83C133.438 13.19 133.338 13.46 133.158 13.64C132.978 13.82 132.788 13.92 132.588 13.94C132.388 13.96 132.198 13.9 132.018 13.76C131.858 13.6 131.788 13.37 131.808 13.07C131.828 12.37 131.848 11.73 131.868 11.15C131.908 10.57 131.948 10.01 131.988 9.47C131.628 9.57 131.208 9.71 130.728 9.89C130.248 10.07 129.668 10.31 128.988 10.61C128.968 11.03 128.948 11.46 128.928 11.9C128.928 12.34 128.928 12.8 128.928 13.28C128.908 13.52 128.848 13.72 128.748 13.88C128.648 14.02 128.528 14.12 128.388 14.18C128.368 14.28 128.328 14.38 128.268 14.48C128.228 14.56 128.178 14.65 128.118 14.75C127.838 15.09 127.578 15.4 127.338 15.68C127.118 15.94 126.908 16.19 126.708 16.43C126.848 16.59 126.998 16.76 127.158 16.94C127.338 17.12 127.528 17.31 127.728 17.51C127.908 17.71 128.108 17.93 128.328 18.17C128.568 18.39 128.838 18.64 129.138 18.92C129.458 18.2 129.748 17.58 130.008 17.06C130.288 16.52 130.558 16.01 130.818 15.53C130.938 15.29 131.098 15.14 131.298 15.08C131.498 15 131.678 14.99 131.838 15.05C131.998 15.13 132.108 15.27 132.168 15.47C132.248 15.65 132.238 15.87 132.138 16.13C132.078 16.23 132.028 16.33 131.988 16.43C131.948 16.51 131.908 16.59 131.868 16.67C131.828 16.77 131.788 16.86 131.748 16.94C131.708 17.02 131.678 17.09 131.658 17.15C131.878 17.37 132.108 17.6 132.348 17.84C132.588 18.08 132.858 18.34 133.158 18.62C133.438 18.92 133.738 19.24 134.058 19.58C134.378 19.9 134.738 20.25 135.138 20.63C135.338 20.85 135.418 21.07 135.378 21.29C135.358 21.51 135.268 21.69 135.108 21.83C134.948 21.97 134.748 22.04 134.508 22.04C134.288 22.04 134.088 21.93 133.908 21.71C133.628 21.43 133.358 21.17 133.098 20.93C132.838 20.67 132.588 20.42 132.348 20.18C132.108 19.94 131.868 19.71 131.628 19.49C131.388 19.25 131.148 19 130.908 18.74C130.608 19.4 130.328 20.02 130.068 20.6C129.808 21.16 129.528 21.82 129.228 22.58C129.088 22.92 128.898 23.14 128.658 23.24C128.438 23.36 128.238 23.38 128.058 23.3C127.878 23.24 127.738 23.1 127.638 22.88C127.558 22.66 127.598 22.38 127.758 22.04C127.818 21.9 127.868 21.77 127.908 21.65C127.968 21.51 128.028 21.37 128.088 21.23C128.148 21.11 128.208 20.99 128.268 20.87C128.328 20.73 128.388 20.59 128.448 20.45C128.388 20.45 128.338 20.44 128.298 20.42C128.278 20.38 128.258 20.34 128.238 20.3C127.938 20.02 127.678 19.77 127.458 19.55C127.258 19.31 127.058 19.09 126.858 18.89C126.658 18.69 126.468 18.49 126.288 18.29C126.108 18.09 125.908 17.88 125.688 17.66C125.348 18.06 125.018 18.46 124.698 18.86C124.378 19.26 124.038 19.7 123.678 20.18C123.438 20.48 123.198 20.65 122.958 20.69C122.718 20.73 122.518 20.69 122.358 20.57C122.198 20.45 122.108 20.27 122.088 20.03C122.068 19.79 122.178 19.53 122.418 19.25C122.978 18.55 123.468 17.93 123.888 17.39C124.328 16.85 124.728 16.37 125.088 15.95C125.448 15.51 125.778 15.12 126.078 14.78C126.398 14.44 126.728 14.11 127.068 13.79C127.088 13.77 127.118 13.75 127.158 13.73C127.198 13.69 127.248 13.65 127.308 13.61C127.288 13.55 127.268 13.49 127.248 13.43C127.248 13.35 127.258 13.26 127.278 13.16V12.86C126.838 12.96 126.418 13.06 126.018 13.16C125.618 13.26 125.238 13.37 124.878 13.49C124.518 13.59 124.178 13.68 123.858 13.76C123.538 13.84 123.238 13.89 122.958 13.91C122.618 13.97 122.308 13.98 122.028 13.94C121.768 13.9 121.548 13.79 121.368 13.61C120.848 13.73 120.288 13.85 119.688 13.97C119.088 14.07 118.548 14.15 118.068 14.21C117.408 14.33 116.868 14.25 116.448 13.97C116.048 13.67 115.848 13.1 115.848 12.26C115.848 12.06 115.848 11.84 115.848 11.6C115.848 11.36 115.848 11.12 115.848 10.88C115.848 10.64 115.848 10.43 115.848 10.25C115.868 10.05 115.878 9.89 115.878 9.77C115.878 9.35 115.848 8.99 115.788 8.69C115.728 8.39 115.558 8.15 115.278 7.97C115.018 7.83 114.908 7.57 114.948 7.19C114.988 6.79 115.248 6.59 115.728 6.59C116.208 6.59 116.678 6.58 117.138 6.56C117.598 6.54 118.048 6.51 118.488 6.47C118.948 6.45 119.408 6.42 119.868 6.38C120.328 6.34 120.808 6.3 121.308 6.26C121.328 6.26 121.348 6.27 121.368 6.29C121.408 6.29 121.448 6.29 121.488 6.29C121.828 6.27 122.138 6.25 122.418 6.23C122.698 6.19 122.978 6.16 123.258 6.14C123.518 6.1 123.778 6.06 124.038 6.02C124.318 5.98 124.628 5.94 124.968 5.9C125.148 5.88 125.298 5.93 125.418 6.05C125.538 6.15 125.618 6.27 125.658 6.41C125.698 6.55 125.678 6.7 125.598 6.86C125.538 7 125.408 7.1 125.208 7.16C124.988 7.22 124.778 7.27 124.578 7.31C124.378 7.35 124.168 7.39 123.948 7.43C123.728 7.45 123.478 7.48 123.198 7.52C122.938 7.54 122.638 7.56 122.298 7.58ZM120.768 12.2V11.93C120.768 11.71 120.768 11.5 120.768 11.3C120.768 11.08 120.768 10.86 120.768 10.64C120.788 10.44 120.798 10.24 120.798 10.04C120.798 9.84 120.798 9.64 120.798 9.44C120.778 9.22 120.758 9.03 120.738 8.87C120.738 8.69 120.728 8.53 120.708 8.39C120.688 8.27 120.648 8.16 120.588 8.06C120.528 7.96 120.458 7.86 120.378 7.76C120.118 7.8 119.858 7.83 119.598 7.85C119.338 7.87 119.088 7.88 118.848 7.88C118.588 7.88 118.338 7.88 118.098 7.88C117.858 7.88 117.618 7.89 117.378 7.91C117.418 8.07 117.448 8.23 117.468 8.39C117.488 8.55 117.498 8.7 117.498 8.84C117.518 9 117.528 9.15 117.528 9.29C117.528 9.43 117.528 9.56 117.528 9.68C117.528 10.02 117.528 10.46 117.528 11C117.528 11.52 117.538 12.08 117.558 12.68C117.938 12.7 118.428 12.66 119.028 12.56C119.628 12.44 120.208 12.32 120.768 12.2ZM138.505 7.82C138.525 7.62 138.625 7.47 138.805 7.37C138.985 7.27 139.175 7.23 139.375 7.25C139.575 7.25 139.745 7.31 139.885 7.43C140.045 7.55 140.115 7.73 140.095 7.97C140.055 8.57 140.015 9.18 139.975 9.8C139.935 10.42 139.895 11.05 139.855 11.69C139.815 12.33 139.785 12.96 139.765 13.58C139.745 14.2 139.735 14.8 139.735 15.38C140.235 15.3 140.795 15.21 141.415 15.11C142.035 15.01 142.655 14.9 143.275 14.78C143.915 14.68 144.525 14.59 145.105 14.51C145.705 14.41 146.225 14.32 146.665 14.24C146.705 13.54 146.745 12.84 146.785 12.14C146.825 11.44 146.865 10.75 146.905 10.07C146.945 9.39 146.985 8.75 147.025 8.15C147.065 7.53 147.115 6.95 147.175 6.41C147.175 6.19 147.255 6.04 147.415 5.96C147.575 5.88 147.755 5.86 147.955 5.9C148.135 5.92 148.305 6 148.465 6.14C148.625 6.26 148.705 6.42 148.705 6.62C148.665 7.46 148.605 8.47 148.525 9.65C148.465 10.81 148.395 11.99 148.315 13.19C148.395 13.13 148.475 13.07 148.555 13.01C148.655 12.95 148.755 12.91 148.855 12.89C149.355 12.77 149.855 12.68 150.355 12.62C150.875 12.56 151.485 12.51 152.185 12.47C152.385 12.47 152.565 12.53 152.725 12.65C152.885 12.77 152.955 12.91 152.935 13.07C152.915 13.31 152.845 13.51 152.725 13.67C152.625 13.83 152.395 13.94 152.035 14C151.755 14.04 151.475 14.08 151.195 14.12C150.935 14.14 150.675 14.17 150.415 14.21C150.155 14.23 149.905 14.26 149.665 14.3C149.425 14.34 149.205 14.39 149.005 14.45C148.825 14.51 148.655 14.59 148.495 14.69C148.355 14.77 148.255 14.9 148.195 15.08C148.135 15.88 148.085 16.64 148.045 17.36C148.005 18.06 147.985 18.68 147.985 19.22C147.965 19.68 147.855 20.01 147.655 20.21C147.455 20.41 147.245 20.5 147.025 20.48C146.785 20.48 146.575 20.38 146.395 20.18C146.235 19.98 146.185 19.71 146.245 19.37C146.265 19.11 146.285 18.84 146.305 18.56C146.325 18.28 146.355 17.99 146.395 17.69C146.415 17.39 146.435 17.08 146.455 16.76C146.475 16.42 146.505 16.08 146.545 15.74C146.045 15.8 145.485 15.88 144.865 15.98C144.245 16.08 143.605 16.19 142.945 16.31C142.305 16.43 141.685 16.54 141.085 16.64C140.485 16.74 139.975 16.8 139.555 16.82C139.155 16.86 138.795 16.76 138.475 16.52C138.175 16.26 138.025 15.93 138.025 15.53C138.065 14.07 138.125 12.73 138.205 11.51C138.285 10.27 138.385 9.04 138.505 7.82ZM159.92 13.85H159.77C159.79 14.17 159.82 14.49 159.86 14.81C159.9 15.11 159.94 15.42 159.98 15.74C160 16.04 160.03 16.35 160.07 16.67C160.11 16.97 160.16 17.27 160.22 17.57C160.54 17.55 160.87 17.52 161.21 17.48C161.55 17.44 161.9 17.39 162.26 17.33C162.28 17.03 162.31 16.74 162.35 16.46C162.39 16.16 162.43 15.87 162.47 15.59C162.51 15.29 162.55 15 162.59 14.72C162.63 14.44 162.68 14.15 162.74 13.85C162.78 13.65 162.88 13.49 163.04 13.37C163.2 13.23 163.37 13.15 163.55 13.13C163.71 13.13 163.85 13.2 163.97 13.34C164.11 13.46 164.17 13.66 164.15 13.94C164.11 14.24 164.08 14.53 164.06 14.81C164.04 15.07 164.02 15.33 164 15.59C163.98 15.85 163.96 16.11 163.94 16.37C163.92 16.61 163.91 16.86 163.91 17.12C164.19 17.1 164.47 17.08 164.75 17.06C165.03 17.02 165.31 16.99 165.59 16.97C165.85 16.95 166.11 16.93 166.37 16.91C166.65 16.89 166.92 16.86 167.18 16.82C167.44 16.82 167.65 16.88 167.81 17C167.99 17.12 168.09 17.26 168.11 17.42C168.15 17.58 168.11 17.74 167.99 17.9C167.87 18.04 167.68 18.12 167.42 18.14C166.6 18.28 165.71 18.42 164.75 18.56C163.81 18.7 162.84 18.85 161.84 19.01C160.86 19.15 159.88 19.3 158.9 19.46C157.92 19.6 157.01 19.74 156.17 19.88C155.91 19.94 155.71 19.89 155.57 19.73C155.45 19.57 155.39 19.39 155.39 19.19C155.37 18.97 155.41 18.76 155.51 18.56C155.61 18.36 155.77 18.24 155.99 18.2C156.19 18.18 156.39 18.16 156.59 18.14C156.81 18.1 157.03 18.06 157.25 18.02C157.45 18 157.66 17.97 157.88 17.93C158.12 17.89 158.36 17.85 158.6 17.81C158.58 17.49 158.56 17.17 158.54 16.85C158.52 16.53 158.5 16.2 158.48 15.86C158.46 15.54 158.44 15.21 158.42 14.87C158.42 14.53 158.42 14.18 158.42 13.82C158.42 13.76 158.42 13.71 158.42 13.67C158.42 13.63 158.43 13.58 158.45 13.52C158.07 13.32 157.8 13.04 157.64 12.68C157.48 12.32 157.41 11.94 157.43 11.54C157.43 10.88 157.57 10.24 157.85 9.62C158.15 9 158.52 8.47 158.96 8.03C159.42 7.57 159.92 7.22 160.46 6.98C161.02 6.74 161.59 6.65 162.17 6.71C162.67 6.79 163.13 6.99 163.55 7.31C163.99 7.63 164.19 8.21 164.15 9.05C164.11 9.59 163.97 10.14 163.73 10.7C163.49 11.26 163.18 11.77 162.8 12.23C162.4 12.69 161.95 13.08 161.45 13.4C160.97 13.7 160.46 13.85 159.92 13.85ZM159.5 12.23C159.74 12.33 160.02 12.31 160.34 12.17C160.66 12.03 160.97 11.81 161.27 11.51C161.57 11.19 161.84 10.81 162.08 10.37C162.32 9.93 162.49 9.45 162.59 8.93C162.63 8.67 162.57 8.48 162.41 8.36C162.25 8.22 162.08 8.15 161.9 8.15C161.6 8.17 161.35 8.25 161.15 8.39C160.95 8.53 160.78 8.7 160.64 8.9C160.52 9.08 160.4 9.28 160.28 9.5C160.18 9.72 160.07 9.92 159.95 10.1C159.87 10.2 159.78 10.29 159.68 10.37C159.6 10.43 159.53 10.49 159.47 10.55C159.39 10.63 159.31 10.71 159.23 10.79C159.17 10.87 159.13 10.97 159.11 11.09C158.99 11.37 158.97 11.61 159.05 11.81C159.15 12.01 159.3 12.15 159.5 12.23ZM170.93 6.44C171.35 5.76 171.89 5.21 172.55 4.79C173.21 4.35 173.96 4.13 174.8 4.13C175.24 4.15 175.66 4.27 176.06 4.49C176.48 4.71 176.84 5.01 177.14 5.39C177.44 5.79 177.66 6.26 177.8 6.8C177.94 7.34 177.96 7.93 177.86 8.57C177.76 9.21 177.58 9.78 177.32 10.28C177.08 10.76 176.8 11.21 176.48 11.63C176.16 12.07 175.82 12.49 175.46 12.89C175.1 13.27 174.76 13.66 174.44 14.06C174.38 14.14 174.35 14.28 174.35 14.48C174.35 14.66 174.36 14.87 174.38 15.11C174.42 15.35 174.46 15.6 174.5 15.86C174.54 16.12 174.58 16.34 174.62 16.52C174.66 16.84 174.6 17.1 174.44 17.3C174.3 17.48 174.12 17.59 173.9 17.63C173.7 17.67 173.5 17.63 173.3 17.51C173.1 17.37 172.98 17.13 172.94 16.79C172.9 16.61 172.87 16.43 172.85 16.25C172.83 16.07 172.8 15.89 172.76 15.71C172.74 15.53 172.71 15.35 172.67 15.17C172.65 14.99 172.64 14.82 172.64 14.66C172.64 14.24 172.71 13.89 172.85 13.61C172.99 13.33 173.19 13.04 173.45 12.74C174.05 12.1 174.63 11.42 175.19 10.7C175.77 9.98 176.12 9.23 176.24 8.45C176.36 7.69 176.25 7.06 175.91 6.56C175.59 6.06 175.18 5.78 174.68 5.72C174.18 5.68 173.72 5.84 173.3 6.2C172.88 6.56 172.5 6.95 172.16 7.37C172 7.57 171.82 7.68 171.62 7.7C171.42 7.7 171.24 7.65 171.08 7.55C170.94 7.45 170.84 7.3 170.78 7.1C170.74 6.9 170.79 6.68 170.93 6.44ZM174.11 19.55C174.41 19.51 174.7 19.61 174.98 19.85C175.28 20.07 175.48 20.39 175.58 20.81C175.64 21.17 175.53 21.52 175.25 21.86C174.99 22.2 174.68 22.39 174.32 22.43C173.98 22.49 173.69 22.37 173.45 22.07C173.21 21.75 173.07 21.36 173.03 20.9C173.01 20.62 173.11 20.34 173.33 20.06C173.55 19.78 173.81 19.61 174.11 19.55Z" fill="black"/>
</svg>
